/* XPM */
static char * D:\Utilisateurs\Lauranne\Desktop\affiche\4_xpm[] = {
"64 64 511 2",
"  	c None",
". 	c #370000",
"+ 	c #3B0000",
"@ 	c #380000",
"# 	c #770000",
"$ 	c #BC3D3D",
"% 	c #5F1F1F",
"& 	c #2C0000",
"* 	c #300000",
"= 	c #410000",
"- 	c #5C0000",
"; 	c #B13A3A",
"> 	c #620000",
", 	c #660000",
"' 	c #5C1E1E",
") 	c #2A0000",
"! 	c #260000",
"~ 	c #340000",
"{ 	c #4C0000",
"] 	c #510000",
"^ 	c #AA3838",
"/ 	c #1E0000",
"( 	c #310000",
"_ 	c #5A0000",
": 	c #920000",
"< 	c #C13F3F",
"[ 	c #2F0000",
"} 	c #440000",
"| 	c #591D1D",
"1 	c #571C1C",
"2 	c #270000",
"3 	c #280000",
"4 	c #390000",
"5 	c #AB3838",
"6 	c #BE3E3E",
"7 	c #150000",
"8 	c #1B0000",
"9 	c #3A0000",
"0 	c #840000",
"a 	c #C03F3F",
"b 	c #2E0000",
"c 	c #420000",
"d 	c #450000",
"e 	c #800000",
"f 	c #180000",
"g 	c #1C0000",
"h 	c #1F0000",
"i 	c #3C0000",
"j 	c #7F0000",
"k 	c #190000",
"l 	c #120000",
"m 	c #1A0000",
"n 	c #220000",
"o 	c #4C1919",
"p 	c #561C1C",
"q 	c #490000",
"r 	c #672222",
"s 	c #360000",
"t 	c #810000",
"u 	c #BF3F3F",
"v 	c #240000",
"w 	c #BF3E3E",
"x 	c #0E0000",
"y 	c #0F0000",
"z 	c #160000",
"A 	c #4A0000",
"B 	c #6D2424",
"C 	c #600000",
"D 	c #9D3333",
"E 	c #290000",
"F 	c #790000",
"G 	c #B93D3D",
"H 	c #110000",
"I 	c #210000",
"J 	c #5E1F1F",
"K 	c #6F2424",
"L 	c #7F2A2A",
"M 	c #6C0000",
"N 	c #4E0000",
"O 	c #3E0000",
"P 	c #350000",
"Q 	c #820000",
"R 	c #B43B3B",
"S 	c #540000",
"T 	c #8C0000",
"U 	c #320000",
"V 	c #792828",
"W 	c #902F2F",
"X 	c #4F0000",
"Y 	c #1D0000",
"Z 	c #870000",
"` 	c #8D0000",
" .	c #900000",
"..	c #610000",
"+.	c #230000",
"@.	c #8B2D2D",
"#.	c #9E3434",
"$.	c #7D0000",
"%.	c #0F0202",
"&.	c #5D0000",
"*.	c #750000",
"=.	c #7B0000",
"-.	c #140000",
";.	c #B63B3B",
">.	c #912F2F",
",.	c #460000",
"'.	c #160202",
").	c #2B0000",
"!.	c #100000",
"~.	c #830000",
"{.	c #AF3939",
"].	c #8B0000",
"^.	c #6D0000",
"/.	c #890000",
"(.	c #AD3838",
"_.	c #7E2929",
":.	c #883030",
"<.	c #7B2B2B",
"[.	c #250000",
"}.	c #430000",
"|.	c #650000",
"1.	c #B63C3C",
"2.	c #780000",
"3.	c #572E2E",
"4.	c #602121",
"5.	c #2D0000",
"6.	c #470000",
"7.	c #993232",
"8.	c #903232",
"9.	c #AD5B5B",
"0.	c #C26666",
"a.	c #A55757",
"b.	c #864747",
"c.	c #AC5B5B",
"d.	c #1A0303",
"e.	c #240404",
"f.	c #3A0707",
"g.	c #7C0000",
"h.	c #4D0000",
"i.	c #973131",
"j.	c #BC3E3E",
"k.	c #614949",
"l.	c #BB8E8E",
"m.	c #CC6C6C",
"n.	c #C54545",
"o.	c #AC3C3C",
"p.	c #5B0000",
"q.	c #5E0000",
"r.	c #7E2C2C",
"s.	c #AF5C5C",
"t.	c #CF6D6D",
"u.	c #F4B9B9",
"v.	c #F6BABA",
"w.	c #C79696",
"x.	c #816262",
"y.	c #AB3C3C",
"z.	c #170303",
"A.	c #200000",
"B.	c #1C0303",
"C.	c #2B0505",
"D.	c #5F0B0B",
"E.	c #4B0000",
"F.	c #550000",
"G.	c #9A3232",
"H.	c #8F0000",
"I.	c #804343",
"J.	c #E1AAAA",
"K.	c #E77A7A",
"L.	c #D84C4C",
"M.	c #BE4242",
"N.	c #7B4141",
"O.	c #BB6363",
"P.	c #F0B6B6",
"Q.	c #FABDBD",
"R.	c #713C3C",
"S.	c #B25E5E",
"T.	c #993636",
"U.	c #230404",
"V.	c #4C0909",
"W.	c #170000",
"X.	c #9B3333",
"Y.	c #0C0000",
"Z.	c #943434",
"`.	c #D87272",
" +	c #DE4D4D",
".+	c #AF3D3D",
"++	c #622222",
"@+	c #7A4141",
"#+	c #BC6464",
"$+	c #F2B7B7",
"%+	c #C66969",
"&+	c #200404",
"*+	c #410707",
"=+	c #730000",
"-+	c #500000",
";+	c #0D0000",
">+	c #8D3131",
",+	c #D47070",
"'+	c #F9BCBC",
")+	c #D06E6E",
"!+	c #A85959",
"~+	c #D8A3A3",
"{+	c #E37878",
"]+	c #D67171",
"^+	c #C16666",
"/+	c #A05555",
"(+	c #753E3E",
"_+	c #8C4A4A",
":+	c #732828",
"<+	c #100202",
"[+	c #380606",
"}+	c #460808",
"|+	c #914646",
"1+	c #A95252",
"2+	c #C05D5D",
"3+	c #8E2E2E",
"4+	c #530000",
"5+	c #B53F3F",
"6+	c #E17777",
"7+	c #E27878",
"8+	c #CE6D6D",
"9+	c #7C4242",
"0+	c #5B3030",
"a+	c #482626",
"b+	c #592F2F",
"c+	c #4A1A1A",
"d+	c #5E2121",
"e+	c #110202",
"f+	c #1F0404",
"g+	c #300606",
"h+	c #3F0707",
"i+	c #7D3C3C",
"j+	c #924646",
"k+	c #A93434",
"l+	c #BF3B3B",
"m+	c #7C2929",
"n+	c #880000",
"o+	c #762929",
"p+	c #CA4747",
"q+	c #E47979",
"r+	c #D97373",
"s+	c #B56060",
"t+	c #541D1D",
"u+	c #521D1D",
"v+	c #692525",
"w+	c #722828",
"x+	c #551E1E",
"y+	c #120202",
"z+	c #350606",
"A+	c #560000",
"B+	c #7C3C3C",
"C+	c #904545",
"D+	c #A73434",
"E+	c #BD3B3B",
"F+	c #C10000",
"G+	c #130000",
"H+	c #5A1D1D",
"I+	c #910000",
"J+	c #C14444",
"K+	c #E67A7A",
"L+	c #D97272",
"M+	c #A75858",
"N+	c #4E1B1B",
"O+	c #571E1E",
"P+	c #0C0101",
"Q+	c #160303",
"R+	c #270404",
"S+	c #360606",
"T+	c #7A3B3B",
"U+	c #A43333",
"V+	c #BB3A3A",
"W+	c #C03B3B",
"X+	c #4F1A1A",
"Y+	c #A03434",
"Z+	c #B74040",
"`+	c #B05D5D",
" @	c #5A1F1F",
".@	c #4B1A1A",
"+@	c #0D0202",
"@@	c #290505",
"#@	c #3C0707",
"$@	c #773939",
"%@	c #8C4444",
"&@	c #9F3131",
"*@	c #B03737",
"=@	c #B10000",
"-@	c #A70000",
";@	c #A23232",
">@	c #A83737",
",@	c #792A2A",
"'@	c #B43F3F",
")@	c #481919",
"!@	c #1B0303",
"~@	c #280505",
"{@	c #330606",
"]@	c #3B0707",
"^@	c #743838",
"/@	c #854040",
"(@	c #932E2E",
"_@	c #930000",
":@	c #B53838",
"<@	c #D14141",
"[@	c #BB0000",
"}@	c #330000",
"|@	c #BA3D3D",
"1@	c #6F2727",
"2@	c #C76969",
"3@	c #DD7575",
"4@	c #B03E3E",
"5@	c #AB0000",
"6@	c #602E2E",
"7@	c #713737",
"8@	c #7D2727",
"9@	c #760000",
"0@	c #700000",
"a@	c #922D2D",
"b@	c #B83939",
"c@	c #D44242",
"d@	c #CD0000",
"e@	c #832E2E",
"f@	c #B13737",
"g@	c #3D1313",
"h@	c #4F1818",
"i@	c #5A2B2B",
"j@	c #672020",
"k@	c #6A2121",
"l@	c #680000",
"m@	c #BD0000",
"n@	c #DB0000",
"o@	c #BF0000",
"p@	c #872F2F",
"q@	c #D57070",
"r@	c #6B0000",
"s@	c #AE0000",
"t@	c #F04A4A",
"u@	c #C33C3C",
"v@	c #351010",
"w@	c #491717",
"x@	c #571B1B",
"y@	c #591C1C",
"z@	c #520000",
"A@	c #6C2121",
"B@	c #7C2626",
"C@	c #972F2F",
"D@	c #BE3B3B",
"E@	c #E10000",
"F@	c #DD0000",
"G@	c #B30000",
"H@	c #0A0000",
"I@	c #6A2525",
"J@	c #C39393",
"K@	c #884848",
"L@	c #A30000",
"M@	c #FF4F4F",
"N@	c #ED6464",
"O@	c #B23737",
"P@	c #6F2222",
"Q@	c #912D2D",
"R@	c #CC3F3F",
"S@	c #DD4444",
"T@	c #E64747",
"U@	c #E14646",
"V@	c #5F3232",
"W@	c #5C4646",
"X@	c #960000",
"Y@	c #F34B4B",
"Z@	c #FF6C6C",
"`@	c #F84D4D",
" #	c #EC0000",
".#	c #200A0A",
"+#	c #280C0C",
"@#	c #732424",
"##	c #8A2B2B",
"$#	c #B15555",
"%#	c #C45F5F",
"&#	c #D46666",
"*#	c #DF4545",
"=#	c #E74848",
"-#	c #D50000",
";#	c #6D2626",
">#	c #E94848",
",#	c #FC4E4E",
"'#	c #FF0000",
")#	c #180707",
"!#	c #220B0B",
"~#	c #5C1D1D",
"{#	c #6D2222",
"]#	c #7F3D3D",
"^#	c #A85151",
"/#	c #CA3F3F",
"(#	c #D94343",
"_#	c #E34646",
":#	c #990000",
"<#	c #A10000",
"[#	c #A40000",
"}#	c #850000",
"|#	c #9D0000",
"1#	c #B90000",
"2#	c #150707",
"3#	c #361111",
"4#	c #471616",
"5#	c #561B1B",
"6#	c #643030",
"7#	c #864141",
"8#	c #9B3030",
"9#	c #AD3636",
"0#	c #BC3A3A",
"a#	c #CC0000",
"b#	c #D60000",
"c#	c #DF0000",
"d#	c #B70000",
"e#	c #B50000",
"f#	c #7A0000",
"g#	c #B80000",
"h#	c #FD0000",
"i#	c #2B0D0D",
"j#	c #4C1818",
"k#	c #6A3333",
"l#	c #7A2626",
"m#	c #8B2B2B",
"n#	c #A03232",
"o#	c #C50000",
"p#	c #D00000",
"q#	c #D80000",
"r#	c #B40000",
"s#	c #5F0000",
"t#	c #B20000",
"u#	c #F00000",
"v#	c #710000",
"w#	c #940000",
"x#	c #320F0F",
"y#	c #432020",
"z#	c #532828",
"A#	c #5F1D1D",
"B#	c #A80000",
"C#	c #C80000",
"D#	c #580000",
"E#	c #AD0000",
"F#	c #BE0000",
"G#	c #270C0C",
"H#	c #391B1B",
"I#	c #492323",
"J#	c #651F1F",
"K#	c #860000",
"L#	c #7E0000",
"M#	c #6A0000",
"N#	c #EE0000",
"O#	c #FE4F4F",
"P#	c #1D0909",
"Q#	c #2C0E0E",
"R#	c #3E1E1E",
"S#	c #4E2626",
"T#	c #5B1C1C",
"U#	c #682020",
"V#	c #441515",
"W#	c #531A1A",
"X#	c #601E1E",
"Y#	c #640000",
"Z#	c #FD4E4E",
"`#	c #FE6C6C",
" $	c #1A0808",
".$	c #290D0D",
"+$	c #3B1212",
"@$	c #E80000",
"#$	c #E90000",
"$$	c #FC6B6B",
"%$	c #F24B4B",
"&$	c #1E0909",
"*$	c #2F0F0F",
"=$	c #480000",
"-$	c #5A1C1C",
";$	c #662020",
">$	c #AF0000",
",$	c #E20000",
"'$	c #F94D4D",
")$	c #FB6A6A",
"!$	c #FA4D4D",
"~$	c #CB3F3F",
"{$	c #720000",
"]$	c #5E1D1D",
"^$	c #590000",
"/$	c #A90000",
"($	c #E50000",
"_$	c #E84848",
":$	c #E96363",
"<$	c #230B0B",
"[$	c #400000",
"}$	c #AC0000",
"|$	c #A13232",
"1$	c #9E0000",
"2$	c #862A2A",
"3$	c #3F0000",
"4$	c #B00000",
"5$	c #9A0000",
"6$	c #A60000",
"7$	c #630000",
"8$	c #C90000",
"9$	c #B73939",
"0$	c #0B0000",
"a$	c #3D0000",
"b$	c #B60000",
"c$	c #C70000",
"d$	c #DE5E5E",
"e$	c #A83434",
"f$	c #9F0000",
"g$	c #D05858",
"h$	c #CB5656",
"i$	c #A53333",
"j$	c #B63838",
"k$	c #882A2A",
"l$	c #802828",
"                                                                                                                                ",
"                                                                                                                                ",
"                                                                                                                                ",
"                                                                                                                                ",
"                                                                                                                                ",
"                                    . +               @ # $                                                                     ",
"                                  % & *               = - ;                 > , , ,                                             ",
"                                  ' ) ! ~             { ] ^             / ( _ , : : < <                                         ",
"                            [ }   | 1 2 3               4 5 6       7 8 ! 9 0 a < < <                                           ",
"                          3 b c c } ' d ) 3             9 e 6     f g h i j $ <                                                 ",
"                      k l m n o p d q r @ s             9 t u   h / v 9 e w <                                                   ",
"                          x y z n p A B _ C +           9 t < D ! E . F G <                                                     ",
"                              y H I J K L M N O         P Q : R N } S T a                                                       ",
"                                    I U V W # X .     Y 4 Z : w ` T  .< < , ..                                                  ",
"                                      +.@ @.#.$.q (   / c > < < < < < < < < - X                                                 ",
"                                    %.b &.9 *.e =.U -.2 j < u T $., - C *.;.R >.,.                                              ",
"                                    '.).!.P } t ~.s -.s {.< ].^.O g z z v { /.(._.N             :.<.                            ",
"                                  v [.* !.~ }.{ j ] m |.1.: 2.9 n +.3.4.4.5.6.$.7.+       8.9.0.a.b.c.                          ",
"                                d.I v e.f.k }.{ g.h.h i.j. .|.h [ k.l.m.n.o.~ p.q.3   r.s.t.u.v.w.x.y.                          ",
"                                z.A.B.C.- D.} E.F.E.4 G. .H.&.7 * I.J.K.K.L.M.@ n g N.O.P.Q.Q.K.0.R.S.T.                        ",
"                                A.d.U.A V.W.g A q A 9 X. .T s Y.!.Z.`.Q.K.K. +.+++@+#+$+Q.K.K.K.%+N.c.Z.                        ",
"                                z.&+= *+=+f g / A -+s i. .T 9 x ;+>+,+'+Q.K.K.)+!+~+$+K.K.{+]+^+/+(+_+:+                        ",
"                              <+d.4 [+}+|+1+2+/ { s U 3+T 4+= H Y.y 5+6+Q.Q.K.K.Q.Q.K.7+8+!+9+0+a+b+c+d+                        ",
"                              e+f+g+h+i+j+k+l+Y h + U m+n+F.i W.W.x o+p+K.Q.K.Q.Q.q+r+s+9+t+c+u+v+w+x+                          ",
"                              y+* z+A+B+C+D+E+F+-.G+! H+$.I+-+I g l -.J+K+Q.Q.Q.K.L+M+v+N+O+                                    ",
"                            P+Q+R+S+F.T+C+U+V+W+j h.Y X+Y+I+F.] A.-.z Z+q+K.Q.K.6+`+ @.@                                        ",
"                            +@+.@@q #@$@%@&@*@=@-@;@Z ] >@H.: I+= +.,@'@7+Q.Q.K.]+:.)@                                          ",
"                            <+!@~@{@]@^@/@(@_@ .:@<@[@}@D |@<  .|.g 1@2@q+Q.K.3@4@H y y 5@                                      ",
"                              & c F.6@7@8@9@0@a@b@c@d@/.} 0 6 6 q.f e@,+Q.Q.K.I 7 H W.f@/.~.                                    ",
"                              2 g@h@i@j@k@] h.l@0 m@n@o@].6.h.4+. 7 p@]+u.q@A.r@H 8 s@t@u@F.                                    ",
"                              I v@w@x@y@z@&.A@B@C@D@E@F@G@l@& O ( H@I@s+J@K@i k G+L@[@M@N@O@                                    ",
"                              8 ).i d }.,.P@Q@k+D@R@S@T@U@L@{ U H H )@V@W@x q m v X@Y@M@Z@`@ #                                  ",
"                              W..#+#) + x@@###&@$#%#&#*#=#-# .h.m k |.F.;#z =+h b $.>#,#M@M@'#                                  ",
"                              G+)#!#s A ~#{#]#j+^#b@/#(#_#F@F@g.9@f :#<#[#G@}#~.Y r@|#1#M@M@'#                                  ",
"                              !.2#+.3#4#5#6#^@7#8#9#0#R@a#b#c#d#2.W.4 e#o@o@o@}#f#W.W.[#g#h#                                    ",
"                                G+g i#g@j#i@k#l#m#n#f@d#o#p#q#r#F k s#t#u#u#o@o@Q v#-.7 w#s@                                    ",
"                                y z !#x#y#z#A#P@e : :#B#g#C#-@=.9@f D#E#F#u#M@o@o@0 9@D#l 0@                                    ",
"                                  H )#G#H#I#5#J#@#K#H.L#].M#0@*.8 G+k g.F#N#O#M@o@o@[@9@6.                                      ",
"                                  y l P#Q#R#S#T#U#F t =+p.8 Y k H l Y j m@N#M@M@M@M@o@5@..                                      ",
"                                    !.z !#x#V#W#X#A@*.M## &.Y#,.H@= / t [@ #Z#`#Z@M@M@<@=.                                      ",
"                                      H  $.$+$6.z@&.M## ^.2.Q D#-.p.=+r#@$#$,#$$`#`#%$E#,                                       ",
"                                      y -.&$*$+ =$-$;$r@~.w#=.C g 0@# >$,$#$'$)$`#!$~${$                                        ",
"                                        H W.!#[ i h@]$Y#^$|.v#^$m r@{$/$t#($($_$:$c@9@c                                         ",
"                                          G+f <$[ [$h.q z@= q z k |.^.[#}$t#d@<#|$n+}@                                          ",
"                                            G+k <$( c = P i l -.W.k l@1$B#>$C#:#2$,.                                            ",
"                                              7 m v U . }.. 3$,.7 f m r@=+5@}$1## b                                             ",
"                                                z m ! . 9 ,.z@l -.S &.l@0@/$4$C#r@                                              ",
"                                                  f g 3 9 4+E.!.,.X L#T 5$6$_$R@7$                                              ",
"                                                    k h * ~ }.y c E.2.B#[@8$_#9$4+                                              ",
"                                                      8 [.) 0$P a$Y#=+L@b$c$d$e$a$                                              ",
"                                                        f n H@d S ..T f$G@g$h$e 3$                                              ",
"                                                        z / b [$M # n+i$j$j$k${                                                 ",
"                                                          / . d 4+|.*.k$l$..=                                                   ",
"                                                              q ,.A A+7$S ,.                                                    ",
"                                                                                                                                ",
"                                                                                                                                ",
"                                                                                                                                ",
"                                                                                                                                ",
"                                                                                                                                ",
"                                                                                                                                ",
"                                                                                                                                ",
"                                                                                                                                ",
"                                                                                                                                ",
"                                                                                                                                "};
