/* XPM */
static char * D:\Utilisateurs\Lauranne\Desktop\affiche\a8_xpm[] = {
"100 100 3 1",
" 	c None",
".	c #BF331E",
"+	c #E98575",
"....................................................................................................",
"....................................................................................................",
"....................................................................................................",
"....................................................................................................",
"....................................................................................................",
"....................................................................................................",
"....................................................................................................",
"....................................................................................................",
"....................................................................................................",
"...................+++++++++++++++++++..............................................................",
"..................+++++++++++++++++++++++++++++++++++++++++++++++++++++++...........................",
".................+++++++++++++++++++++++++++++++++++++++++++++++++++++++++..........................",
"................+++++++++++++++++++++++++++++++++++++++++++++++++++++++++++.........................",
"................++++++++++++++++++++++++++++++++++++++++++++++++++++++++++++........................",
"................++++++++++++++++++++++++++++++++++++++++++++++++++++++++++++........................",
"................++++++++++++++++++++++++++++++++++++++++++++++++++++++++++++........................",
"................++++++++++++++++++++++++++++++++++++++++++++++++++++++++++++........................",
"................++++++++++++++++++++++++++++++++++++++++++++++++++++++++++++........................",
"................+++++++++++++++++++++++++++++++++++++++++++++++++++++++++++.........................",
"................++++++++++++++++++++++++++++++++++++++++++++++++++++++++++..........................",
"................+++++++++++.........+++++++++++++++++++++++++++++++++++++...........................",
"................+++++++++++................................+++++....................................",
"................+++++++++++.........................................................................",
"................+++++++++++.........................................................................",
"................+++++++++++.........................................................................",
"................+++++++++++.........................................................................",
"................+++++++++++.........................................................................",
"................+++++++++++.........................................................................",
"................+++++++++++.........................................................................",
"................++++++++++++........................................................................",
"................++++++++++++........................................................................",
"................++++++++++++........................................................................",
".................+++++++++++........................................................................",
".................+++++++++++........................................................................",
".................+++++++++++........................................................................",
".................+++++++++++........................................................................",
".................+++++++++++........................................................................",
".................++++++++++++.......................................................................",
".................++++++++++++.......................................................................",
".................++++++++++++.......................................................................",
"..................++++++++++++++++++................................................................",
"..................+++++++++++++++++++++++++++++.....................................................",
"..................++++++++++++++++++++++++++++++++++++++++++++......................................",
"..................+++++++++++++++++++++++++++++++++++++++++++++.....................................",
"..................++++++++++++++++++++++++++++++++++++++++++++++....................................",
"...................++++++++++++++++++++++++++++++++++++++++++++++...................................",
"...................++++++++++++++++++++++++++++++++++++++++++++++...................................",
"...................++++++++++++++++++++++++++++++++++++++++++++++...................................",
"...................++++++++++++++++++++++++++++++++++++++++++++++...................................",
"...................++++++++++++++++++++++++++++++++++++++++++++++...................................",
"...................+++++++++++++++++++++++++++++++++++++++++++++....................................",
"...................+++++++++++...++++++++++++++++++++++++++++++.....................................",
"...................+++++++++++...............+++++++++++++++++......................................",
"...................+++++++++++......................................................................",
"...................+++++++++++......................................................................",
"...................+++++++++++......................................................................",
"...................+++++++++++......................................................................",
"...................+++++++++++......................................................................",
"...................+++++++++++......................................................................",
"...................++++++++++++.....................................................................",
"...................++++++++++++.....................................................................",
"...................++++++++++++.....................................................................",
"...................++++++++++++.....................................................................",
"...................++++++++++++.....................................................................",
"...................+++++++++++......................................................................",
"...................+++++++++++......................................................................",
"...................+++++++++++......................................................................",
"...................+++++++++++......................................................................",
"...................+++++++++++......................................................................",
"...................+++++++++++......................................................................",
"...................+++++++++++......................................................................",
"...................+++++++++++......................................................................",
"...................+++++++++++......................................................................",
"...................+++++++++++......................................................................",
"...................++++++++++++++...................................................................",
"...................+++++++++++++++++++++++++........................................................",
"...................++++++++++++++++++++++++++++++++++++++++++++++++.................................",
"...................+++++++++++++++++++++++++++++++++++++++++++++++++++++++++++......................",
"...................++++++++++++++++++++++++++++++++++++++++++++++++++++++++++++.....................",
"...................+++++++++++++++++++++++++++++++++++++++++++++++++++++++++++++....................",
"...................++++++++++++++++++++++++++++++++++++++++++++++++++++++++++++++...................",
"...................++++++++++++++++++++++++++++++++++++++++++++++++++++++++++++++...................",
"....................+++++++++++++++++++++++++++++++++++++++++++++++++++++++++++++...................",
".....................++++++++++++++++++++++++++++++++++++++++++++++++++++++++++++...................",
"......................+++++++++++++++++++++++++++++++++++++++++++++++++++++++++++...................",
"..............................++++++++++++++++++++++++++++++++++++++++++++++++++....................",
".........................................++++++++++++++++++++++++++++++++++++++.....................",
"................................................................++++++++++++++......................",
"....................................................................................................",
"....................................................................................................",
"....................................................................................................",
"....................................................................................................",
"....................................................................................................",
"....................................................................................................",
"....................................................................................................",
"....................................................................................................",
"....................................................................................................",
"....................................................................................................",
"....................................................................................................",
"...................................................................................................."};
