/* XPM */
static char * D:\Utilisateurs\Lauranne\Desktop\affiche\7_xpm[] = {
"64 64 24 1",
" 	c None",
".	c #0C0C50",
"+	c #141471",
"@	c #242481",
"#	c #02022E",
"$	c #1F1F81",
"%	c #3535A2",
"&	c #4E4EBA",
"*	c #7070C7",
"=	c #0F0F5F",
"-	c #161665",
";	c #0D0D58",
">	c #080844",
",	c #0A0A4D",
"'	c #101062",
")	c #070741",
"!	c #18186A",
"~	c #10105A",
"{	c #0A0A52",
"]	c #080850",
"^	c #5151A8",
"/	c #A1A1D6",
"(	c #0C0C5D",
"_	c #0C0C52",
"......+++@##+++..++++########@++++@########++++..+++##@+++......",
"+.....+++@@##+++++####@@@@@@##@@@@##@@@@@@####+++++##@@+++.....+",
"++....++++@@##+++##@@@@+++++@@#@@#@@+++++@@@@##+++##@@++++....++",
"+++++++++++@@#+##@@@+++++++++@####@+++++++++@@@##+#@@+++++++++++",
"++++++++++@@+#$$$$$$$$+...+++@#@@#@+++...+$$$$$$$$##@@++++++++++",
"@@++++++++$$$$%%%%%%%$$$$.++@@#@@#@@++.$$$$%%%%%%%$$$$++++++++@@",
"#@@@++++@$%%%%&&&&&&&%%%$$$+@##@@##@+$$$%%%&&&&&&&%%%%$@++++@@@#",
"@##@@@@$$%&&&&*******&&&%%$$@#@++@#@$$%%&&&*******&&&&%$$@@@@##@",
"@@####$%%&*****&&&&&****&&%$$@@++@@$$%&&****&&&&&*****&%%$####@@",
"+@@+#$%%&**&&&&&%%%&&&&&**&%$$++++$$%&**&&&&&%%%&&&&&**&%%$#+@@+",
"++@@#$%&**&&&%%%%$%%%%%&&**&%$$++$$%&**&&%%%%%$%%%%&&&**&%$#@@++",
"+++@$%&**&&%%%$$$.$$$$$%&&**&%$$$$%&**&&%$$$$$.$$$%%%&&**&%$@+++",
"++@@$%&*&&%%$$@@#.....+$%&&**&%$$%&**&&%$+.....#@@$$%%&&*&%$@@++",
"++@$%&**&&%$+@@##....+++$%&&**&%%&**&&%$+++....##@@+$%&&**&%$@++",
"+@@$%&*&&%%$@@##+..++++++$%&&**&&**&&%$++++++..+##@@$%%&&*&%$@@+",
"@@#$%&*&%%$@@##@====++++++$%&&****&&%$++++++++++@##@@$%%&*&%$#@@",
"#++$%&*&%%$####-;==;;;=+++@$%&&**&&%$@++++======@####$%%&*&%$++#",
"+++$%&*&%%$@@@>,-''===;;=@@#$%&&&&%$#@@+=====''->#@@@$%%&*&%$+++",
"...$%&*&%%$++@->)!!=====~-##$$%&&%$$##@-=====!!)>@@++$%%&*&%$...",
"...$%&*&&$@++=~-)))!-----,,+$$%&&%$$+>>-----!)))--+++@$&&*&%$...",
"...$%&**&%$++==!))))>>,>>>,#@$$%%$$@#>>>>>>>))))!=+++$%&**&%$...",
"..++$%&*&%$++==-{>>--~~~~~~,#@$%%$@#>{------->>--=+++$%&*&%$++..",
".+++$%&*&&%$=='###)!'=#=;##~##$#####-#]=]###]########%&&*&%$+++.",
"#+@@$%&**^^^#]#^^^#]]#^#;#^^@##^^^#@#^#=#^^^#^^^^^^^^^^**&%$@@+#",
"#####$%&*^/^#]#^/^#]#^/^##^/^##^/^##^/^##^/^#^/^//////^*&%$#####",
"++@@@$%&*^//^#^//^#]#^/^^#^/^##^/^##^/^##^/^#^/^^^^/^^^*&%$@@@++",
".++++$%&*^/^/^/^/^##^/#/^#^/^##^/^#^/#/^#^/^#^/^##^/^&**&%$++++.",
"...+++$%&^/^^/^^/^##^/#/^#^/^^^^/^#^/#/^#^/^#^/^##^/^&*&%$+++...",
"...+++$%&^/^%^@^/^#^/##@/^^//////^^/^#^/^^/^#^/^##^/^**&%$+++...",
"++++++$$%^/^&%$^/^#^/////^^/^^^^/^^/////^^/^#^/^##^/^*&%$$++++++",
"+@@@@@@@$^/^&%$^/^^/^^^^^/^/^##^/^/^^^^^/^/^+^/^#$^/^&%$@@@@@@@+",
"########$^/^*&%^/^^/^###^/^/^##^/^/^###^/^/^^^/^#%^/^&%$########",
"#########^/^*&%^/^/^#]]]#^//^##^//^#]!]#^/^///^##%^/^%$#########",
"+@@@@@@@#^^^**&^^^^#](!)#^^^^##^^^^#!!!)#^^^^^##%&^^^%$#@@@@@@@+",
"++++++++@#$%&**&###]]-))]####''####]!!))]#####$$&**&%$#@++++++++",
"...++++@@#.$%&*&%$$##>-!))))!!''''!!))))!]]]#$$%&*&%$.#@@++++...",
"...++++@##..$%&*&%$$++;-!!!))!!!!!!))!!!-=++$$%&*&%$..##@++++...",
".+++++@@#...$%&**&%$$+=;=!!!))))))))!!!==++$$%&**&%$...#@@+++++.",
"++@@@@@##....$%&**&%$.._;='!!))))))!!'==...$%&**&%$....##@@@@@++",
"########@....+$%&**&%$..=;='!)'!!!)!'==+..$%&**&%$+....@########",
"#+@@@###@...+++$%&*&%$$++;;-!)!!!!)!-==++$$%&*&%$+++...@###@@@+#",
"++++@@@##@+++++$%&**&%$$++~~>)!''!)>--++$$%&**&%$+++++@##@@@++++",
"..++++@@##+++++@$%&**&%$@@@,>-!''!->>@@@$%&**&%$@+++++##@@++++..",
"...+++@@@#@++++@#$%&**&$$###~-''''--###$$&**&%$#@++++@#@@@+++...",
"...+++@@@#@+++@@##$%&*&%$$#+-;=''==@+#$$%&*&%$##@@+++@#@@@+++...",
"...+++@@@#@++@@##@$%&**&%$$#@~;===-@#$$%&**&%$@##@@++@#@@@+++...",
"+++++@@##@@@@@##@++$%&**&%$$#@====@##$%&**&%$++@##@@@@@##@@+++++",
"#+++@@@########@+++$$%&**&%$#@@==@@#$%&**&%$$+++@########@@@+++#",
"@@##@###@@@@@##@++++$$%&**&$#+@--@+#$&**&%$$++++@##@@@@@###@##@@",
"+@@#@#@@++++@@##+..+++$%&*&%$######$%&*&%$+++..+##@@++++@@#@#@@+",
"++@+##@++++++@@##....+$%&**&%$#@@#$%&**&%$+....##@@++++++@###@++",
"++@@#@@+++++++@@#.....+$%&**&%@@@@%&**&%$+.....#@@+++++++@@#@@++",
"+++@#@+++++++++@#.######$%&**&%$$%&**&%$######.#@+++++++++@#@+++",
"++@@#@++....++@@###@@@@@@$%&*&%$$%&*&%$@@@@@@###@@++....++@#@@++",
"+@@+#@+.....++@##@@@++++@$%&**&%%&**&%$@++++@@@##@++.....+@#+@@+",
"@@########..+@@#@@+++++++@$%&**&&**&%$@+++++++@@#@@+..########@@",
"@##@@@@@@#.++@##@+++....+++$%&****&%$+++....+++@##@++.#@@@@@@##@",
"#@@@++++@@##+@#@@+++......++$%&**&%$++......+++@@#@+##@@++++@@@#",
"@@++++++++@##@##@++++.....++$%&**&%$++.....++++@##@##@++++++++@@",
"++++++++++@@+#+#@@+++++...+++$%&&%$+++...+++++@@#+##@@++++++++++",
"+++++++++++@@#+##@@@+++++++++@$%%$@+++++++++@@@##+#@@+++++++++++",
"++....++++@@##+++##@@@@+++++@@#$$#@@+++++@@@@##+++##@@++++....++",
"+.....+++@@##+++++####@@@@@@##@@@@##@@@@@@####+++++##@@+++.....+",
"......+++@##+++..++++########@++++@########++++..+++##@+++......"};
