/* XPM */
static char * D:\Utilisateurs\Lauranne\Desktop\affiche\Sans titre_3_xpm[] = {
"100 50 309 2",
"  	c None",
". 	c #2D4CAB",
"+ 	c #2B50AE",
"@ 	c #2956B2",
"# 	c #275CB6",
"$ 	c #2463BB",
"% 	c #2269BF",
"& 	c #216DC2",
"* 	c #216DC1",
"= 	c #2368BE",
"- 	c #2660B9",
"; 	c #2957B3",
"> 	c #2E49A9",
", 	c #2D4AAA",
"' 	c #2A55B1",
") 	c #2859B4",
"! 	c #275DB6",
"~ 	c #285AB4",
"{ 	c #2A54B1",
"] 	c #2F4AA9",
"^ 	c #304AAA",
"/ 	c #2E4EAC",
"( 	c #2E50AE",
"_ 	c #2A51AF",
": 	c #2A53B1",
"< 	c #2A53AF",
"[ 	c #2C51AF",
"} 	c #2C4DAD",
"| 	c #2E4BAB",
"1 	c #2B52AF",
"2 	c #285BB5",
"3 	c #2465BC",
"4 	c #1F73C5",
"5 	c #1B7ECD",
"6 	c #1788D3",
"7 	c #158DD7",
"8 	c #168CD7",
"9 	c #1984D1",
"0 	c #1E75C7",
"a 	c #2466BD",
"b 	c #2958B3",
"c 	c #2C4FAD",
"d 	c #2D4BAA",
"e 	c #2E4AAA",
"f 	c #2957B2",
"g 	c #2561B9",
"h 	c #226BC0",
"i 	c #1F71C4",
"j 	c #2D4EAD",
"k 	c #285CB5",
"l 	c #2562BA",
"m 	c #2463BA",
"n 	c #265EB7",
"o 	c #2857B3",
"p 	c #216EC2",
"q 	c #1490D9",
"r 	c #0F9EE3",
"s 	c #0CA7E9",
"t 	c #0AACEC",
"u 	c #0DA3E6",
"v 	c #158FD8",
"w 	c #1D77C8",
"x 	c #2561BA",
"y 	c #2A53B0",
"z 	c #2D4DAC",
"A 	c #2C4EAC",
"B 	c #1983D0",
"C 	c #158ED8",
"D 	c #1982D0",
"E 	c #1F72C5",
"F 	c #2D4BAB",
"G 	c #2C4DAC",
"H 	c #2B56B1",
"I 	c #1F71C5",
"J 	c #1A82CF",
"K 	c #1D76C8",
"L 	c #285AB5",
"M 	c #206EC2",
"N 	c #109BE1",
"O 	c #06B7F4",
"P 	c #04BDF7",
"Q 	c #03C0F9",
"R 	c #02C2FB",
"S 	c #05BAF6",
"T 	c #1885D2",
"U 	c #226AC0",
"V 	c #109BE0",
"W 	c #0BABEB",
"X 	c #2B51AE",
"Y 	c #2955B1",
"Z 	c #0FA0E4",
"` 	c #0CA8E9",
" .	c #0DA4E6",
"..	c #1297DE",
"+.	c #1A81CF",
"@.	c #2858B4",
"#.	c #1A80CE",
"$.	c #109CE1",
"%.	c #08B1EF",
"&.	c #02C3FC",
"*.	c #01C6FE",
"=.	c #01C6FD",
"-.	c #00C7FE",
";.	c #0AADEC",
">.	c #2B51AF",
",.	c #04BDF8",
"'.	c #2A54B0",
").	c #226ABF",
"!.	c #216CC1",
"~.	c #2464BB",
"{.	c #275DB7",
"].	c #2C4EAD",
"^.	c #2464BC",
"/.	c #265FB8",
"(.	c #2858B3",
"_.	c #168BD6",
":.	c #0BA8EA",
"<.	c #08B1F0",
"[.	c #109AE0",
"}.	c #1B7DCD",
"|.	c #2563BA",
"1.	c #2B53B0",
"2.	c #01C4FC",
"3.	c #01C7FE",
"4.	c #00C8FF",
"5.	c #0BAAEB",
"6.	c #2B52B0",
"7.	c #206FC3",
"8.	c #1789D4",
"9.	c #168CD6",
"0.	c #1E76C8",
"a.	c #1B7FCD",
"b.	c #1B7DCC",
"c.	c #1E74C6",
"d.	c #2366BD",
"e.	c #2C50AE",
"f.	c #1D78C9",
"g.	c #06B8F4",
"h.	c #01C5FD",
"i.	c #00C7FF",
"j.	c #03C0FA",
"k.	c #0AADED",
"l.	c #2859B3",
"m.	c #2C4CAC",
"n.	c #1492DA",
"o.	c #08B2F0",
"p.	c #02C4FC",
"q.	c #03C1FA",
"r.	c #1C7CCC",
"s.	c #2955B2",
"t.	c #2367BD",
"u.	c #1982CF",
"v.	c #0EA0E4",
"w.	c #0DA5E7",
"x.	c #0BA9EA",
"y.	c #0EA1E4",
"z.	c #1295DD",
"A.	c #1787D3",
"B.	c #275BB5",
"C.	c #1393DB",
"D.	c #2660B8",
"E.	c #0EA1E5",
"F.	c #1C7BCB",
"G.	c #265EB8",
"H.	c #178AD5",
"I.	c #05BCF7",
"J.	c #03BFF9",
"K.	c #05BAF5",
"L.	c #08B3F0",
"M.	c #0CA7E8",
"N.	c #2562BB",
"O.	c #275AB4",
"P.	c #2661BA",
"Q.	c #2070C3",
"R.	c #0EA2E5",
"S.	c #07B4F1",
"T.	c #06B9F5",
"U.	c #05BBF6",
"V.	c #04BEF8",
"W.	c #0DA4E7",
"X.	c #1F73C6",
"Y.	c #158FD9",
"Z.	c #05B9F5",
"`.	c #07B6F3",
" +	c #1886D2",
".+	c #2560B9",
"++	c #0F9FE3",
"@+	c #0CA6E8",
"#+	c #2A52B0",
"$+	c #1392DB",
"%+	c #1198DF",
"&+	c #2071C4",
"*+	c #216BC1",
"=+	c #1D7ACA",
"-+	c #1C7ACA",
";+	c #2563BB",
">+	c #265DB7",
",+	c #2366BE",
"'+	c #1E77C8",
")+	c #09AFEE",
"!+	c #02C3FB",
"~+	c #119AE0",
"{+	c #1296DD",
"]+	c #275BB6",
"^+	c #1F74C6",
"/+	c #0AAEED",
"(+	c #216CC0",
"_+	c #0EA3E6",
":+	c #168AD5",
"<+	c #1D79CA",
"[+	c #2367BE",
"}+	c #275CB5",
"|+	c #1C7DCB",
"1+	c #1491DA",
"2+	c #07B5F2",
"3+	c #255FB8",
"4+	c #0BAAEA",
"5+	c #06B6F3",
"6+	c #2A56B2",
"7+	c #1788D4",
"8+	c #0CA8EA",
"9+	c #07B4F2",
"0+	c #08B3F1",
"a+	c #09B0EE",
"b+	c #1199DF",
"c+	c #1C7CCB",
"d+	c #2366BC",
"e+	c #1C79C9",
"f+	c #1789D3",
"g+	c #226BC1",
"h+	c #1B80CD",
"i+	c #04BCF7",
"j+	c #1689D5",
"k+	c #2467BE",
"l+	c #109DE2",
"m+	c #1D79C9",
"n+	c #09B0EF",
"o+	c #0AABEC",
"p+	c #0DA5E8",
"q+	c #1C7ACB",
"r+	c #02C1FA",
"s+	c #2958B4",
"t+	c #2369BF",
"u+	c #0F9DE2",
"v+	c #1395DD",
"w+	c #1395DC",
"x+	c #265DB6",
"y+	c #09AEED",
"z+	c #2465BD",
"A+	c #1295DC",
"B+	c #1394DC",
"C+	c #1B7CCC",
"D+	c #2C4CAB",
"E+	c #2661B9",
"F+	c #1493DB",
"G+	c #05BBF7",
"H+	c #1297DD",
"I+	c #1985D2",
"J+	c #09AEEE",
"K+	c #1A7FCE",
"L+	c #1887D2",
"M+	c #1E76C7",
"N+	c #285CB6",
"O+	c #06B7F3",
"P+	c #07B5F3",
"Q+	c #158CD7",
"R+	c #2070C4",
"S+	c #1888D4",
"T+	c #0EA4E7",
"U+	c #1983D1",
"V+	c #02C2FC",
"W+	c #2369BE",
"X+	c #206DC2",
"Y+	c #09ADEC",
"Z+	c #206FC4",
"`+	c #1A82D0",
" @	c #285BB6",
".@	c #1298DF",
"+@	c #216EC1",
"@@	c #2365BD",
"#@	c #1E73C6",
"$@	c #1492DB",
"%@	c #1887D3",
"&@	c #2956B1",
"*@	c #1885D1",
"=@	c #0EA2E6",
"-@	c #2959B4",
";@	c #2560BA",
">@	c #04BFF9",
",@	c #1393DC",
"'@	c #1E74C7",
")@	c #275EB7",
"!@	c #2C4FAE",
"~@	c #2857B2",
"{@	c #1198DE",
"]@	c #0F9EE2",
"^@	c #1884D1",
"/@	c #0DA6E8",
"(@	c #1E75C6",
"_@	c #2B4DAC",
":@	c #0AABEB",
"<@	c #2662BA",
"[@	c #1D77C9",
"}@	c #2D4CAC",
"|@	c #2A55B2",
"1@	c #1789D5",
"2@	c #2C4BAB",
"3@	c #2B4EAD",
"4@	c #2B50AF",
". + @ # $ % & * = - ; + . > > > > > > > > > > > > > > > > > , . + ' ) ! ! ~ { + . , > > > > > > > > > > > > > > > > > > > > > > > > > > > > > > > > > > ] ] ] ^ ^ ^ > ^ ] / ( _ : < [ } | > > > > > ] > ",
"1 2 3 4 5 6 7 8 9 0 a b c d > > > > > > > > > > > > > > > e . + f g h i i h g ; + . > > > > > > > > > > > > > > > > > > > > > > > > > > > e , e e e > > ] > > ^ ] > > > j ' k l a m n o [ | > > > > > > ",
"n p 5 q r s t t u v w x y z > > > > > > > > > > > > > > > , A { g i B C C D E g ' A , > > > e > , d . . z . . . F d e > > > > > > > > , F z G G . F e ] > > > ^ > > > j H m I 5 9 J K % L c | > > > > > ",
"M 9 N t O P Q R S u T U ; A e > > > > > > > > > > > > > > d + ~ h B V W W V D h ~ + d > e d . A c X y Y ; ; f @ y + A F > > > > > > d G + y Y ' y c z , > ] ] > ] ] . _ g K C Z `  ...+.% @.} | > > > > ",
"#.$.%.P &.*.=.-.R ;.8 & ) c , > > > > > > > > > > > > > > F >.! i C W ,.,.W 7 i ! >.F . G X '.b ! l 3 ).!.* * % ~.{.f y ]., > > > d ].y L x 3 ^./.(.>.z , > ] > > > } (.p _.:.S Q ,.<.[.}.|.1.| > > > > ",
"7 t Q 2.3.4.=.2.,.s 6 h ) + G z G z z . d e > > > > > > > . >.! i 7 5.,.,.W 7 i ! 6.c 1 @ ! a 7.w 5 9 8.9.C 8 6 #.0.h /.@ + F > e G y {.h w a.b.c.d.~ X . e > > > | e.n f.V g.h.i.3.j.k.v 7.l.m.> > > > ",
"n.o.p.-.h.h.q.S k...r.d.) ' ' @ @ f @ y 1 c . d > > > > > F + ~ h B V 5.5.V B h 2 { s.2 t.c.u.C ..v.w.x.t ;.;.` y.z.A.w t.B.>.. d c ) ).a.C.r $.7 w $ Y A , > > > | + D.}.E.P 3.4.4.h.g.$.F.G.X e > > > ",
"H.` I.q.J.K.L.M.z.D p $ /.N.a U !.* h d.- ~ y c F e > > > , A ' g E B C C B E l L O.P.Q.+.C.R.;.S.T.U.V.Q Q Q V.K.%.W.C.#.& # 1 c >.G.X.Y.5.Z.`.R. +!.~ c d > > > e e..+r.++U.*.4.4.*.,.@+T d.#+, > > > ",
"F.$+w.t 5.R.%+_.F.&+).*+I =+D 8.8 8 8.9 -+7.;+(.+ . e > > e . + f g h i i h m >+n ,+'+_.++)+S j.!+h.=.=.3.3.3.=.2.q.K.;.~+9 M ! y @ - f.{+S.2.q.5._.7.B.+ F > > > > A ]+^+z.S.!+-.4.-.Q /+v 7.; z > > > ",
"= f.T _.H.B =+Q.(+& X.#.7 ~+_+5.;.t 5.W.%+:+<+[+~ + F > > > e . + { ~ ! ! }+]+/.U |+1+@+2+J.h.3.*.4.-.-.-.*.3.-.-.3.p.V.%.$.B h # b 3+X.Y.4+Z.5+R.T !.~ c d > > > > z 6+% 7+8+P h.i.*.!+9+~+-+/.X , > > ",
") x = !.h d.l l = 0 7+~+5.2+U.J.j.Q J.U.0+@+C.-+3 @ G e > > > e F G + X : f n *+a.{+4+Z.!+=.3.-.3.*.h.p.p.&.p.h.*.3.3.=.J.a+b+c+d+2 {.U 5 C.r $.8 w $ Y A , > > > > e X D.e+b+9+q.*.4.h.U.w.T ).' . e > ",
"c y @ b f f ) .+i f+v.L.,.&.h.=.-.=.*.h.q.Z.` 7 &+# + F > > > > > , d G #+B.g+h+..k.U.!+*.4.3.h.!+J.i+S T.Z.S V.R h.3.-.2.P W Y.E /.) D.h w a.b.c.a ) X . e > > > > > z (.!.j+@+i+h.3.=.Q )+C.0 n + , > ",
"d . z A G e.@ k+5 l+9+q.h.3.-.3.-.3.3.3.=.&.2+b+m+- 1 F > > > > > > , + ) % #.%+k.I.p.3.3.*.p.V.g.n+o+` p+W.s )+g.Q h.*.-.2.O Z #.= ) @ ]+x 3 ^./.(.1 z d > > > > > > d X .+q+b+0+r+*.-.2.T.R.B = ' . e ",
"> e e e F c ~ &+v ;.J.3.-.3.*.h.2.&.p.2.=.2.5+~+<+- 1 . e > > > > e e.s+t+5 ..k.i+&.*.-.*.q.U.a+W.u+N V b+v+w+V s 2+Q =.4.*.J.k.1+4 x+#+>.y ' ' y + z , > > , d F F d | G ; !.H.8+P h.4.=.J.y+C.c.# + , ",
"> > > > d + /.-+V `.&.3.3.h.R V.K.g.T.U.P Z.5.v E {.+ F > > > > > z Y z+r.A+k.i+2.3.3.h.q.O x.~+C.B+V E.y.%+C _.w+@+Z.&.3.3.2.g.r a.^.{ } . G G . F e > , F A + X >.c . G y l C+$.`.!+*.3.h.T.v.+.3 y . ",
"> > > > d 1 ~.#.R.U.h.-.=.R Z.a+@+E.E.W.@+v.n.c+t.; ]., > > > > D+{ E+f.F+4+G+&.=.-.h.Q `.w.C.8._.b+x.`.`.W H+I+T ..J+J.=.4.=.V.5.9.& b z e e , e > > , . + @ B.G./.2 { e.>.~ 7.8 4+V.=.4.*.J.t C 7.(.A ",
"> > > > F y ~.B w.,.3.-.h.J.%.++C 9 D 9 9 K+0 = L >.. e > > > d >.n E 7 @+K.&.3.-.h.Q 2+u v K+5 C w.g.!+p.g.v.L+r.7+R.g.2.-.-.R 9+%+f.G.+ , > > > > e . X ~ 3 7.M+0 p l b #+@ ~.a.l+5+!+*.3.!+2+~+f./.c ",
"> > > > d 1 ^.D W.I.h.3.h.V.;.B+F.h t.d.t.3 /.(.>.z , > > > . 1 N+M  +E.O+R *.3.=.q.P+R.Q+-+R+b.{+a+Q h.h.i+w.S+0 F.B+)+Q 3.4.h.S T+U+k+'.. > > > > , ].b d.-+9.{+B+7+w 3 f y N+&+q t J.*.4.h.K.v.#.~.1 ",
"> > > > d >.l 5 v.K.=.4.3.J.y+C.f.l f ' { { 1 c . , > > e . >.N+!.D l+o.j.*.4.*.V+g.W.Q+M+W+X++.r g.2.3.h.U.w. +i E 7+w.U.h.3.=.j.Y+q Z+L G > > > > F 1 /.c.q s S.o.W.Y.0.l @ f t.u.y.g.p.3.h.I.w.9 t.{ ",
"> > > > , c G.w b+2+p.-.*.R 2+l+a.t.; X A . . F d , F . + Y /.p D %+)+V.h.-.i.h.I.5.1+K ^.D.U  +@+i+*.4.2.K.R.`+h = r.N 2+!+*.*.&.`.$.c+E+_ d > > e . { ^.#.++T.&.R g.W.8.p  @6+G.M+B+y+J.h.h.i+w.9 d.' ",
"> > > > > ].~ Q.Y./+Q =.-.2.U.` q c.;+b X + A G c + 1 @ ! t.c.7+$.y+i+&.-.4.*.Q n+.@b.3 L }++@_.W V.=.*.&.O l+b.@@x #@$@n+j.3.3.h.i+s %@% &@. > > e z Y [+9 w.P =.=.q.L.~+F.x ' (.).*@y.5+R !+O l+5 ~.y ",
"> > > > > . ' [+9 W.U.h.3.=.R `.R._.f.% g 2 2 L 2 n l % c.+.n.=@<.P !+-.-.*.R `.v.B ).-@{ L &+n.)+q.*.4.!+2+%+f.;@N+(+_.W >@*.-.-.R o.,@'@)@!@> > > . { t.B u U.2.3.h.i+@+ +% ~@'./.X.C W.o.L.@+C 4 n X ",
"> > > > > d >.G.m+{@o.q.*.3.h.J.0+ .C.9 m+X.4 i 0 f.5  +1+]@t O J.2.*.-.*.R g.w._.R+{.1 + # 0...S.R *.3.q.n+$+i }+@.@@^@/@P *.4.4.h.Z.Z u.W+(.c d > F y ;+5 ++O &.3.3.Q /+C M L _ Y ~.M+8.B+w+_.f.3 f c ",
"> > > > > e ].b h 7+w.U.h.-.*.h.Q O k.R.b+C.C.C.w+b+]@W.k.`.,.!+=.-.3.h.R g.s C (@x '._@+ x F.r g.p.-.=.J.:@9.* ; '.<@C+++K.h.4.4.=.V.t B+q+t.L y c ].y l F.V 9+R *.3.!+o.C.4 L + c ; l p 0 M+7.~.) X . ",
"> > > > > > F >.- w z.)+J.h.3.-.h.R ,.g.0+n+)+n+o.9+5+U.J.R h.-.3.*.2.J.`.p+v [@;+@ z d '.a D u U.h.4.h.I.w.T [+'.>.2 c.{+0+R -.i.*.R O+@+1+5 7.~.2 ; B.t.5 N S.R 3.4.p.9+{+0 2 e.}@c ' L G.G.B.@ + . e ",
"> > > > > > , G ; [+D $.o.J.=.3.3.-.h.!+R q.j.q.R R !+h.=.-.-.-.=.!+i+%.v.9.w $ |@A , . @ h 1@x.,.=.3.h.K.v.#.$ 1 ].f % %@s U.h.-.-.h.Q O+5.~+8 5 c.p 7.0.8.E.O+R 3.3.R L.B+4 L ].e F G c X >.+ A . e > ",
"> > > > > > > d + # p %@r %.V.!+*.4.3.-.*.=.3.=.-.*.*.-.3.-.*.p.Q O+W b+*@i - @ ]., > . ~ 7.q y+Q 3.4.&.5+~+<+/.+ 2@+ D.f.{+<.q.*.-.*.h.R P 0+` l+C.7 _.q $.y+I.p.-.*.j./+v M ) G e > , d . F F , e > > ",
"> > > > > > > e . 1 G.7.T ~+t g.J.!+h.-.-.3.-.*.-.*.*.*.h.&.Q K.)+v.q b.h {.y A , > e c # M+..L.R 3.*.R o.B+c.! c | G @ t+B ++9+j.2.3.-.=.h.R i+5+a+:@4+W n+Z.R =.-.=.i+@+ +% ' . > > > > > > > > > > > ",
"> > > > > > > > e z y ! !.5 q y.y+O+,.R R R R q.q.j.Q ,.S `.k.E.B+B 4 ~.) 1 . e > > d >.- F.l+O+p.3.*.Q ;.C p b G e F + # Q.8.E.0+V.&.*.4.-.*.h.R q.J.,.V.J.!+h.3.*.R 2+$.c+l 1 F > > > > > > > > > > > ",
"> > > > > > > > > , z 1 2 3 c.D 1+r x.)+%.o.L.o.n+y+t s R.b+v B 0 % {.' c F > > > > . y d.B u U.h.3.=.P @+%@% Y . > > . 1 /.&+T N ;.T.j.2.*.*.-.3.*.=.*.*.=.3.3.-.=.,.4+7 Q.2 ].e > > > > > > > > > > > ",
"> > > > > > > > > > > . c Y n = c.K+7+q B+w+z.w+C.q 8 %@+.f.R+t.n @ >.. d > > > > > . @ !._.5.V.=.3.p.K.y.#.^.y F > > e z '.G.& #.n._+%.Z.q.h.*.3.4.-.3.-.3.4.3.h.J.o.b+c+$ { . > > > > > > > > > > > > ",
"> > > > > > > > > > > > , z + Y # $ U 7.4 X.0 c.E 7.!.= ^.G.) ' + z d > > > > > > > A L X.C.n+q.-.-.&.2+b+m+G.c , > > > e z 1 B.t.0 *@{+ .%.T.J.R p.2.h.=.h.h.R i+%.l+B U (.c , > > > > > > > > > > > > ",
"> > > > > > > > > > > > > > , z c y Y ) L 2 B.B.2 (.b @ { y 3@G d > > > > > > > > e + - -+V 2+!+3.*.q.)+$+E 2 A e > > > > e . + @ G.= w  +B+y.W %.`.g.Z.S Z.g.L.s {@D & # >.F > > > > > > > > > > > > > ",
"> > > > > > > > > > > > > > > > , d . G A c c ].G A c [ 4@1 e.A . , > > > > > > > F y ^.+.R.S h.4.=.V.x.H.h @ . e > > > > > > , G X f /.% 0 +._.C.b+l+Z v.++V B+6 m+U # 1 . > > > > > > > > > > > > > > ",
"> > > > > > > > > > > > > > > > > > > > e e e e > . c y b L ~ f 1 A d > > > > > > G @ U 1@` P h.-.h.K.R.u.3 y F > > > > e , d d F . A >.; # ^.!.E f.-+b.b.c+<+E U g (.+ . > > > > > > > > > > > > > > > ",
"> > > > > > > > > > > > > > > > > > > > > > > > F c @ /.= & !.a ! '.A , > > > > e c 2 &+1+/+j.*.3.!+2+~+-+- + d > > e F G c + c A . 2@F G X y f ~ {./.- - x {.B.@ 1 G d e > > > > > > > > > > > > > > > ",
"> > > > > > > > > > > > > > > > > > > > > > > e G ' g &+#.8.A.c+h # 1 . e > > > d + n w {@0+R -.*.q.a+$+4 L A , > e . + { (.L ) @ >.G d , , . A ].c + + X + c ].G F , > > > > > > > > > > > > > > > > > ",
"> > > > > > > > > > > > > > > > > > > > > > > F + 2 !.9 ~+s W.C.F.a @ ]., > > > d >.- -+V O+p.*.2.I.s 7+h ; z e > . + b x ).M !.^.2 1 z e > > > e d d d d , , e > > > > > > > > > > > > > > > > > > > > ",
"> > > > > > > > > > > > > > > > > > > > > > e . 1 /.c.1+k.P Z.W.%@* ~ + F > > > F >./.f.b+5+h.-.q.0+~+c+;+y . > d ].@ $ c.B :+ +<+% L + F e > > > > > > > > > > > > > > > > > > > > > > > > > > > > > > ",
"> > > > > > > > > > > > > > > > > > > > > > > . 1 /.0.B+n+j.,.s 1@p L + F > > > d + # &+C :@I.J.5+u 8.M 2 c , > . >.! Q.6 r x.u q w l { z e > > > > > > > > > > > > > > > > > > > > > > > > > > > > > > ",
"> > > > > > > > > > > > > > > > > > > > > > > F X # Q.1@R.n+k.V +.% (.c d > > > , A @ a c+C.u s ]@_.0 g '.. > e . y x m+{+%.J.g.Z D = ; ].d > > > > > > > > > > > > > > > > > > > > > > > > > > > > > > ",
"> > > > > > > > > > > > > > > > > > > > > > > d c ; 3 f.1@B+n.9 &+- '.z e > > > > . X 2 = w D *@K+i l @ ]., > e . '.l -+b+2+R U.R.9 % b ].d > > > > > > > > > > > > > > > > > > > > > > > > > > > > > > ",
"> > > > > > > > > > > > > > > > > > > > > > > > . >.~ 3 R+0.0 * x f c F > > > > > , z >.(.x d.[+~.{.@ c F > > > . 1 /.X.C @+o.t {+C+3 @ A , > > > > > > > > > > > > > > > > > > > > > > > > > > > > > > ",
"> > > > > > > > > > > > > > > > > > > > > > > > , z >.f # - /.2 Y + . e > > > > > > , . c y ' @ { X G d > > > > F + ) = F.8 w+q +.p {.1 . > > > > > > > > > > > > > > > > > > > > > > > > > > > > > > > ",
"> > > > > > > > > > > > > > > > > > > > > > > > > , . ].X 1 1 + A F e > > > > > > > > e d . z z . F , e > > > > e z 1 B.[+i w c.h /.' ].d > > > > > > > > > > > > > > > > > > > > > > > > > > > > > > > ",
"> > > > > > > > > > > > > > > > > > > > > > > > > > e d F . . d , > > > > > > > > > > > e e , , e > > > > > > > > d G 1 b {.- /.L '.c F > > > > > > > > > > > > > > > > > > > > > > > > > > > > > > > > ",
"> > > > > > > > > > > > > > > > > > > > > > > > > > > > > e e > > > > > > > > > > > > > > > > > > > > > > > > > > > , . c >.1 1 + G d > > > > > > > > > > > > > ] > > > > > > > > > > > > > > > > > > > ",
"> > > > > > > > > > > > > > > > > > > > > > > > > > > > > > > > > > > > > > > > > > > > > > > > > > > > > > > > > > > e d . . . d , > > > > > > > > > > > > > > > > > > > > > > > > > > > > > > > > > > ",
"> > > > > > > > > > > > > > > > > > > > > > > > > > > > > > > > > > > > > > > > > > > > > > > > > > > > > > > > > > > > > > > > > > > > > > > > > > > > > > > > > > > > > > > > > > > > > > > > > > > > ",
"> > > > > > > > > > > > > > > > > > > > > > > > > > > > > > > > > > > > > > > > > > > > > > > > > > > > > > > > > > > > > > > > > > > > > > > > > > > > > > > > > > > > ] > > > > > > > > > > > > > > > "};
