/* XPM */
static char * D:\Utilisateurs\Lauranne\Desktop\affiche\so\2_xpm[] = {
"34 34 4 1",
" 	c #719AA8",
".	c #5B8492",
"+	c #7FA8B6",
"@	c #9BC4D2",
"                ..                ",
"                ..                ",
"  +++++++++++   ..   +++++++++++  ",
"  +++++++++++   ..   +++++++++++  ",
"  ++@@@@@@@++   ..   ++@@@@@@@++  ",
"  ++@@@@@@@++   ..   ++@@@@@@@++  ",
"  ++@@@@@@@++   ..   ++@@@@@@@++  ",
"  ++@@@@@@@++   ..   ++@@@@@@@++  ",
"  ++@@@@@@@++   ..   ++@@@@@@@++  ",
"  ++@@@@@@@++   ..   ++@@@@@@@++  ",
"  ++@@@@@@@++   ..   ++@@@@@@@++  ",
"  ++@@@@@@@++   ..   ++@@@@@@@++  ",
"  +++++++++++   ..   +++++++++++  ",
"  +++++++++++   ..   +++++++++++  ",
"                ..                ",
"                ..                ",
"..................................",
"..................................",
"                ..                ",
"                ..                ",
"  +++++++++++   ..   +++++++++++  ",
"  +++++++++++   ..   +++++++++++  ",
"  ++@@@@@@@++   ..   ++@@@@@@@++  ",
"  ++@@@@@@@++   ..   ++@@@@@@@++  ",
"  ++@@@@@@@++   ..   ++@@@@@@@++  ",
"  ++@@@@@@@++   ..   ++@@@@@@@++  ",
"  ++@@@@@@@++   ..   ++@@@@@@@++  ",
"  ++@@@@@@@++   ..   ++@@@@@@@++  ",
"  ++@@@@@@@++   ..   ++@@@@@@@++  ",
"  ++@@@@@@@++   ..   ++@@@@@@@++  ",
"  +++++++++++   ..   +++++++++++  ",
"  +++++++++++   ..   +++++++++++  ",
"                ..                ",
"                ..                "};
