/* XPM */
static char *_b6536c20ef24267abfab93e616c0600Esu6BZ768EJXF9wh[] = {
/* columns rows colors chars-per-pixel */
"34 34 5 1 ",
"  c #412201",
". c #4C2801",
"X c #5F3101",
"o c #743C01",
"O c #944C01",
/* pixels */
"OOOOOOOOOOOOOOOOOOOOOOOOOOOOOOOOOO",
"oooooooooooooooooooooooooooooooooo",
"XXXXXXXXXXXXXXXXXXXXXXXXXXXXXXXXXX",
"..................................",
"                                  ",
"                                  ",
"OOOOOOOOOOOOOOOOOOOOOOOOOOOOOOOOOO",
"oooooooooooooooooooooooooooooooooo",
"XXXXXXXXXXXXXXXXXXXXXXXXXXXXXXXXXX",
"..................................",
"                                  ",
"                                  ",
"OOOOOOOOOOOOOOOOOOOOOOOOOOOOOOOOOO",
"oooooooooooooooooooooooooooooooooo",
"XXXXXXXXXXXXXXXXXXXXXXXXXXXXXXXXXX",
"..................................",
"                                  ",
"                                  ",
"OOOOOOOOOOOOOOOOOOOOOOOOOOOOOOOOOO",
"oooooooooooooooooooooooooooooooooo",
"XXXXXXXXXXXXXXXXXXXXXXXXXXXXXXXXXX",
"..................................",
"                                  ",
"                                  ",
"OOOOOOOOOOOOOOOOOOOOOOOOOOOOOOOOOO",
"oooooooooooooooooooooooooooooooooo",
"XXXXXXXXXXXXXXXXXXXXXXXXXXXXXXXXXX",
"..................................",
"                                  ",
"                                  ",
"OOOOOOOOOOOOOOOOOOOOOOOOOOOOOOOOOO",
"oooooooooooooooooooooooooooooooooo",
"..................................",
"                                  "
};
