/* XPM */
static char * D:\Utilisateurs\Lauranne\Desktop\affiche\so\1_xpm[] = {
"34 34 86 1",
" 	c #013850",
".	c #01374E",
"+	c #013952",
"@	c #014D6E",
"#	c #014B6B",
"$	c #014969",
"%	c #014867",
"&	c #014765",
"*	c #014563",
"=	c #014461",
"-	c #014C6C",
";	c #015072",
">	c #015F87",
",	c #015C83",
"'	c #015A80",
")	c #01587E",
"!	c #01577C",
"~	c #01557A",
"{	c #015478",
"]	c #015174",
"^	c #015B81",
"/	c #016793",
"(	c #016F9E",
"_	c #016E9C",
":	c #016C9A",
"<	c #016894",
"[	c #01648F",
"}	c #015E85",
"|	c #016691",
"1	c #0170A0",
"2	c #017AAD",
"3	c #0178AB",
"4	c #0177A9",
"5	c #0174A6",
"6	c #0173A4",
"7	c #01638D",
"8	c #0172A2",
"9	c #0176A7",
"0	c #0180B7",
"a	c #0182B9",
"b	c #017EB3",
"c	c #017CB1",
"d	c #016A96",
"e	c #017FB5",
"f	c #0183BA",
"g	c #0187C0",
"h	c #018BC6",
"i	c #018ECA",
"j	c #018CC8",
"k	c #018AC4",
"l	c #016089",
"m	c #013B54",
"n	c #0188C2",
"o	c #0184BC",
"p	c #0186BE",
"q	c #013C56",
"r	c #016B98",
"s	c #0190CE",
"t	c #0197D7",
"u	c #019BDD",
"v	c #019CDF",
"w	c #019EE1",
"x	c #013D58",
"y	c #01A7EE",
"z	c #01AEF7",
"A	c #01B2FD",
"B	c #03B4FF",
"C	c #019FE2",
"D	c #05B4FF",
"E	c #00B3FF",
"F	c #01AFF9",
"G	c #07B5FF",
"H	c #01A0E4",
"I	c #01B0FB",
"J	c #01A8F0",
"K	c #0193D1",
"L	c #019ADB",
"M	c #01A2E6",
"N	c #017BAF",
"O	c #015376",
"P	c #09B6FF",
"Q	c #01628B",
"R	c #0194D3",
"S	c #01A6EC",
"T	c #0198D9",
"U	c #0192CF",
"     ........................     ",
"+@@##$%&&**.**==******.**&&%$##-@+",
" ;>>,')!~{% &]];];]]]& %{{!)^,>>; ",
"+~/(_:</[^- -!},,},}!# -^[|<:(1/~+",
"+!_2345617] ;>/||///>; ][185932:!+",
"+'80aa0bc_)+!d566885<!+'(ceefa01'+",
"+'5ghiijk2lm>50e00ea5>ml2khjihn5^+",
" )9baoggpo/m|eeeeeee0/m/fpggpfb9) ",
"+)>[d:____:qrrrrrrrrrrq:_(__:d[>)+",
"++mmqqqqqqqqqqqqqqqqqqqqqqqqmqmm++",
" ~}[r(55555q5555566556q595561r[}~ ",
" ~6bkstuvw3x4vvuvvuuv3x3wwutsne6~ ",
" {8buyzABC2x3CCBBBBwC3x2CDEzyue8{ ",
" {1buyFBGH2x2HHDDDDHH2x2HDEIJue1{ ",
" {1cnKLwHMNxNMMMMMMMMNxNMMCuKkN({ ",
" O^7r842NNNPNNNNNNNNNNPNNN298rQ'O ",
" ++mqqxxxxxxxxxxxxxxxxxxxxxxqqm++ ",
" ++mqqxxxxxxxxxxxxxxxxxxxxxxqqm++ ",
" O^Qr8422NNPNNNNNNNNNNPNNN248r7^O ",
" O(bkRLwHMNxNMMMMMMMMNxNMHwuRkN1{ ",
" {1evyFEPHNxNCHGGGGCH2xNHDBFSub1{ ",
" {8ewJFADC2x3CCBBBBww2x2CEAzSwe8{ ",
" ~80hKTLvw3x4uvvuvuvv4x3vvvTUke8{ ",
" ~}[r159999q5555555599x99956(r[}! ",
"++mmqqqqqqqqqqqqqqqqqqqqqqqqqqmm+ ",
"+)>[<r____:qrrrrrrrrr:q:_(__r<[>)+",
" )9caogopo/m|0eebeb0e|m/opopo0c5) ",
"+)5njiihk2lm>5000e009>ml2hhiihg5'+",
"+'80faabc_'+!d656666<!+)(c0aaaa8'+",
"+!:234581[] ;>/||///>; ][185433:!+",
"+~/1(:d/[^- #!}}},,}!# -^[/d:(1/~+",
" ;>>,''!~{% &]];;;;;]& %O~~)',>>; ",
"+@@##$%&&&*.**=*=*****.**&&%$##@@+",
"     ........................     "};
