/* XPM */
static char *c8cd163cb0774608f33b7ef028e86845Hi7av3GjptkMWNYt[] = {
/* columns rows colors chars-per-pixel */
"34 34 5 1 ",
"  c black",
". c #56310D",
"X c #6E4925",
"o c #815C38",
"O c #9F7A56",
/* pixels */
" ..XXXooOOoooXXX..................",
" ..XXXooOOoooXXX..................",
" ..XXXooOOoooXXX..................",
" ..XXXooOOoooXXX..................",
" ..XXXooOOoooXXX..................",
" ..XXXooOOoooXXX..................",
" ..XXXooOOoooXXX..................",
" ..XXXooOOoooXXX..................",
" ..XXXooOOoooXXX..................",
" ..XXXooOOoooXXX..................",
" ..XXXooOOoooXXX..................",
" ..XXXooOOoooXXX..................",
" ..XXXooOOoooXXX..................",
" ..XXXooOOoooXXX..................",
" ..XXXooOOoooXXX..................",
" ..XXXooOOoooXXX..................",
" ..XXXooOOoooXXX..................",
" ..XXXooOOoooXXX..................",
" ..XXXooOOoooXXX..................",
" ..XXXooOOoooXXX..................",
" ..XXXooOOoooXXX..................",
" ..XXXooOOoooXXX..................",
" ..XXXooOOoooXXX..................",
" ..XXXooOOoooXXX..................",
" ..XXXooOOoooXXX..................",
" ..XXXooOOoooXXX..................",
" ..XXXooOOoooXXX..................",
" ..XXXooOOoooXXX..................",
" ..XXXooOOoooXXX..................",
" ..XXXooOOoooXXX..................",
" ..XXXooOOoooXXX..................",
" ..XXXooOOoooXXX..................",
" ..XXXooOOoooXXX..................",
" ..XXXooOOoooXXX.................."
};
