/* XPM */
static char *_c59c085de8e41f2e192f9c8db2b89c6SwKQyhpvMwkCY3wV[] = {
/* columns rows colors chars-per-pixel */
"34 34 18 1 ",
"  c black",
". c #5F3001",
"X c #56310D",
"o c #6E4925",
"O c #B91111",
"+ c #C41C1C",
"@ c #D02828",
"# c #DB3333",
"$ c #DE3636",
"% c #E23A3A",
"& c #E43C3C",
"* c #815C38",
"= c #9F7A56",
"- c #EA4242",
"; c #F24A4A",
": c #FF6161",
"> c #FF6F6F",
", c #FF9090",
/* pixels */
"-,:@,:@---,:@,:@ XXooo**===***ooX.",
"-,:@,:@,:@,:@--@ XXooo**===***ooX.",
"----,:@,:@,:@,:@ XXooo**===***oooo",
"-,:@,:@,:@,:@,:@ XXooo**===***oooo",
"-,:@---,:@---,:@ XXooo**===*******",
"-,:@---,:@---,:@ XXooo**===*******",
"-,:@,:@,:@,:@,:@ XXooo**==========",
"-,:@,:@,:@,:@,:@ XXooo**==========",
"----,:@---,:@--@ XXooo************",
"----,:@---,:@--@ XXooo************",
"-,:@,:@,:@,:@,:@ XXooo************",
"-,:@,:@,:@,:@,:@ XXooooooooooooooo",
"-,:@,:@,:@---,:@ XXooooooooooooooo",
"-,:@---,:@---,:@ XXooooooooooooooo",
"-,:@,:@,:@,:@,:@ XXXXXXXXXXXXXXXXX",
"-,:@,:@,:@,:@,:@ XXXXXXXXXXXXXXXXX",
"----,:@---,:@--@                  ",
"&%%$>;+###>;+##O                  ",
"-,:@,:@::@,:@,O O@@@@@@@@@@@@@@@@@",
"-,:@,:@,:@,:@O O--::::::--::::::-:",
"-,:@---,:@--O O,--,,,,,,--,,,,,,-,",
"-,:@,:@,:@-O O@@@@@@--@@@@@@--@@@@",
"-,:@,:@,:@O O-::::::--::::::--::::",
"-,:@,:@,:O O--,,,,,,--,,,,,,--,,,,",
"----,:@-O O@@@@@--@@@@@@--@@@@@@@-",
"----,:@O O::::::--::::::--:::::::-",
"-,:@,:O O-,,,,,,--:,,,,,--,,,,,,,-",
"-,:@,O O@@@@@-@@@@@@-@@@@@@@--@@@@",
"-,:@O O::::::-::::::-:::::::--::::",
"-,:O O,,,,,,,-,,,,,,-,,,,,,,--,,,,",
"-,O O@@@--@@@@@@--@@@@@@--@@@@@-@@",
"-O O::::--::::::--::::::--:::::-::",
"O O,,,,,--,,,,,,--,,,,,,--,,,,,-,,",
"OO--------------------------------"
};
