/* XPM */
static char *f21b943349334d33fd4a4d973af33ea25H0YDk7g3Ne8Peaz[] = {
/* columns rows colors chars-per-pixel */
"34 34 9 1 ",
"  c black",
". c #56310D",
"X c #6E4925",
"o c #D02828",
"O c #815C38",
"+ c #9F7A56",
"@ c #EA4242",
"# c #FF6161",
"$ c #FF9090",
/* pixels */
"@$#o$#o@@@$#o$#o ..XXXOO++OOOXXX..",
"@$#o$#o$#o$#o@@o ..XXXOO++OOOXXX..",
"@@@@$#o$#o$#o$#o ..XXXOO++OOOXXX..",
"@$#o$#o$#o$#o$#o ..XXXOO++OOOXXX..",
"@$#o@@@$#o@@@$#o ..XXXOO++OOOXXX..",
"@$#o@@@$#o@@@$#o ..XXXOO++OOOXXX..",
"@$#o$#o$#o$#o$#o ..XXXOO++OOOXXX..",
"@$#o$#o$#o$#o$#o ..XXXOO++OOOXXX..",
"@@@@$#o@@@$#o@@o ..XXXOO++OOOXXX..",
"@@@@$#o@@@$#o@@o ..XXXOO++OOOXXX..",
"@$#o$#o$#o$#o$#o ..XXXOO++OOOXXX..",
"@$#o$#o$#o$#o$#o ..XXXOO++OOOXXX..",
"@$#o$#o$#o@@@$#o ..XXXOO++OOOXXX..",
"@$#o@@@$#o@@@$#o ..XXXOO++OOOXXX..",
"@$#o$#o$#o$#o$#o ..XXXOO++OOOXXX..",
"@$#o$#o$#o$#o$#o ..XXXOO++OOOXXX..",
"@@@@$#o@@@$#o@@o ..XXXOO++OOOXXX..",
"@@@@$#o@@@$#o@@o ..XXXOO++OOOXXX..",
"@$#o$#o##o$#o$#o ..XXXOO++OOOXXX..",
"@$#o$#o$#o$#o$#o ..XXXOO++OOOXXX..",
"@$#o@@@$#o@@@$#o ..XXXOO++OOOXXX..",
"@$#o$#o$#o@@@$#o ..XXXOO++OOOXXX..",
"@$#o$#o$#o$#o$#o ..XXXOO++OOOXXX..",
"@$#o$#o$#o$#o$#o ..XXXOO++OOOXXX..",
"@@@@$#o@@@$#o@@o ..XXXOO++OOOXXX..",
"@@@@$#o@@@$#o@@o ..XXXOO++OOOXXX..",
"@$#o$#o$#o$#o$#o ..XXXOO++OOOXXX..",
"@$#o$#o$#o$#o$#o ..XXXOO++OOOXXX..",
"@$#o@@@$#o@@@$#o ..XXXOO++OOOXXX..",
"@$#o@@@$#o@@@$#o ..XXXOO++OOOXXX..",
"@$#o$#o$#o$#o$#o ..XXXOO++OOOXXX..",
"@@@@$#o$#o$#o$#o ..XXXOO++OOOXXX..",
"@$#o$#o$#o$#o@@o ..XXXOO++OOOXXX..",
"@$#o$#o@@@$#o$#o ..XXXOO++OOOXXX.."
};
