/* XPM */
static char *babd2dd184c649dcd77bcd528b68e437Q3yHia9gBgRqHapy[] = {
/* columns rows colors chars-per-pixel */
"34 34 11 1 ",
"  c black",
". c #5F3001",
"X c #56310D",
"o c #6E4925",
"O c #B81010",
"+ c #D02828",
"@ c #815C38",
"# c #9F7A56",
"$ c #EA4242",
"% c #FF6161",
"& c #FF9090",
/* pixels */
"XXXXXXXXXXXXXXXXXXXXXXXXXXXXXXXXX.",
"XXXXXXXXXXXXXXXXXXXXXXXXXXXXXXXXX.",
"ooooooooooooooooooooooooooooooooXX",
"ooooooooooooooooooooooooooooooooXX",
"@@@@@@@@@@@@@@@@@@@@@@@@@@@@@oooXX",
"@@@@@@@@@@@@@@@@@@@@@@@@@@@@@oooXX",
"##########################@@@oooXX",
"##########################@@@oooXX",
"@@@@@@@@@@@@@@@@@@@@@@@@##@@@oooXX",
"@@@@@@@@@@@@@@@@@@@@@@@@##@@@oooXX",
"@@@@@@@@@@@@@@@@@@@@@@@@##@@@oooXX",
"oooooooooooooooooooooo@@##@@@oooXX",
"oooooooooooooooooooooo@@##@@@oooXX",
"oooooooooooooooooooooo@@##@@@oooXX",
"XXXXXXXXXXXXXXXXXXXooo@@##@@@oooXX",
"XXXXXXXXXXXXXXXXXXXooo@@##@@@oooXX",
"                 XXooo@@##@@@oooXX",
"$$$$&%+$$$&%+$O  XXooo@@##@@@oooXX",
"$&%+&%+%%+&%+O O XXooo@@##@@@oooXX",
"$&%+&%+&%+&%O O+ XXooo@@##@@@oooXX",
"$&%+$$$&%+$O O%+ XXooo@@##@@@oooXX",
"$&%+&%+&%+O O&%+ XXooo@@##@@@oooXX",
"$&%+&%+&%O O+&%+ XXooo@@##@@@oooXX",
"$&%+&%+&O O%+&%+ XXooo@@##@@@oooXX",
"$$$$&%+O O&%+$$+ XXooo@@##@@@oooXX",
"$$$$&%O O$&%+$$+ XXooo@@##@@@oooXX",
"$&%+&O O%+&%+&%+ XXooo@@##@@@oooXX",
"$&%+O O&%+&%+&%+ XXooo@@##@@@oooXX",
"$&%O O$&%+$$$&%+ XXooo@@##@@@oooXX",
"$&O O$$&%+$$$&%+ XXooo@@##@@@oooXX",
"$O O&%+&%+&%+&%+ XXooo@@##@@@oooXX",
"O O$&%+&%+&%+&%+ XXooo@@##@@@oooXX",
" O%+&%+&%+&%+$$+ XXooo@@##@@@oooXX",
" &%+&%+$$$&%+&%+ XXooo@@##@@@oooXX"
};
