/* XPM */
static char *_a6634a67eff4eea8daa365b60c0401dEYQfQuUOfTFykAnH[] = {
/* columns rows colors chars-per-pixel */
"34 34 11 1 ",
"  c black",
". c #56310D",
"X c #57320E",
"o c #5A3511",
"O c #6E4925",
"+ c #D02828",
"@ c #815C38",
"# c #9F7A56",
"$ c #EA4242",
"% c #FF6161",
"& c #FF9090",
/* pixels */
"..OO@@@##@@@OOO...................",
"..OO@@@##@@@OOO...................",
"..OO@@@##@@@OOO...................",
"..OO@@@##@@@OOOOOOOOOOOOOOOOOOOOOO",
"o.OO@@@##@@@@@@@@@@@@@@@@@@@@@@@@@",
"o.OO@@@##@@@@@@@@@@@@@@@@@@@@@@@@@",
"o.OO@@@###########################",
"o.OO@@@###########################",
"X.OO@@@@@@@@@@@@@@@@@@@@@@@@@@@@@@",
"o.OO@@@@@@@@@@@@@@@@@@@@@@@@@@@@@@",
"o.OO@@@@@@@@@@@@@@@@@@@@@@@@@@@@@@",
"..OOOOOOOOOOOOOOOOOOOOOOOOOOOOOOOO",
"..OOOOOOOOOOOOOOOOOOOOOOOOOOOOOOOO",
"..OOOOOOOOOOOOOOOOOOOOOOOOOOOOOOOO",
"..................................",
"..................................",
"                                  ",
"++++++++++++++++++++++++++++++++++",
"%$%%%%%%$$%%%%%%$$%%%%%%$$%%%%%%$%",
"&$&&&&&&$$&&&&&&$$&&&&&&$$&&&&&&$&",
"++++$$++++++$$++++++$$++++++$$++++",
"%%%%$$%%%%%%$$%%%%%%$$%%%%%%$$%%%%",
"&&&&$$&&&&&&$$&&&&&&$$&&&&&&$$&&&&",
"$+++++++$$++++++$$++++++$$+++++++$",
"$%%%%%%%$$%%%%%%$$%%%%%%$$%%%%%%%$",
"$&&&&&&&$$&&&&&&$$%&&&&&$$&&&&&&&$",
"++++$$+++++++$++++++$+++++++$$++++",
"%%%%$$%%%%%%%$%%%%%%$%%%%%%%$$%%%%",
"&&&&$$&&&&&&&$&&&&&&$&&&&&&&$$&&&&",
"++$+++++$$++++++$$++++++$$+++++$++",
"%%$%%%%%$$%%%%%%$$%%%%%%$$%%%%%$%%",
"&&$&&&&&$$&&&&&&$$&&&&&&$$&&&&&$&&",
"$$$$$$$$$$$$$$$$$$$$$$$$$$$$$$$$$$",
"$$$$$$$$$$$$$$$$$$$$$$$$$$$$$$$$$$"
};
