/* XPM */
static char *_c4023ecfb7c4a9aa7598d29b5480251134hBnwED1FP2kNI[] = {
/* columns rows colors chars-per-pixel */
"34 34 5 1 ",
"  c #180D01",
". c #2E1801",
"X c #3A1D01",
"o c #4D2804",
"O c #56310D",
/* pixels */
"OOOOooooXXXXX...  ...XXXXXooooOOOO",
"OOOOooooXXXXX...  ...XXXXXooooOOOO",
"OOOOooooXXXXX...  ...XXXXXooooOOOO",
"OOOOooooXXXXX...  ...XXXXXooooOOOO",
"OOOOooooXXXXX...  ...XXXXXooooOOOO",
"OOOOooooXXXXX...  ...XXXXXooooOOOO",
"OOOOooooXXXXX...  ...XXXXXooooOOOO",
"OOOOooooXXXXX...  ...XXXXXooooOOOO",
"OOOOooooXXXXX...  ...XXXXXooooOOOO",
"OOOOooooXXXXX...  ...XXXXXooooOOOO",
"OOOOooooXXXXX...  ...XXXXXooooOOOO",
"OOOOooooXXXXX...  ...XXXXXooooOOOO",
"OOOOooooXXXXX...  ...XXXXXooooOOOO",
"OOOOooooXXXXX...  ...XXXXXooooOOOO",
"OOOOooooXXXXX...  ...XXXXXooooOOOO",
"OOOOooooXXXXX...  ...XXXXXooooOOOO",
"OOOOooooXXXXX...  ...XXXXXooooOOOO",
"OOOOooooXXXXX...  ...XXXXXooooOOOO",
"OOOOooooXXXXX...  ...XXXXXooooOOOO",
"OOOOooooXXXXX...  ...XXXXXooooOOOO",
"OOOOooooXXXXX...  ...XXXXXooooOOOO",
"OOOOooooXXXXX...  ...XXXXXooooOOOO",
"OOOOooooXXXXX...  ...XXXXXooooOOOO",
"OOOOooooXXXXX...  ...XXXXXooooOOOO",
"OOOOooooXXXXX...  ...XXXXXooooOOOO",
"OOOOooooXXXXX...  ...XXXXXooooOOOO",
"OOOOooooXXXXX...  ...XXXXXooooOOOO",
"OOOOooooXXXXX...  ...XXXXXooooOOOO",
"OOOOooooXXXXX...  ...XXXXXooooOOOO",
"OOOOooooXXXXX...  ...XXXXXooooOOOO",
"OOOOooooXXXXX...  ...XXXXXooooOOOO",
"OOOOooooXXXXX...  ...XXXXXooooOOOO",
"OOOOooooXXXXX...  ...XXXXXooooOOOO",
"OOOOooooXXXXX...  ...XXXXXooooOOOO"
};
