/* XPM */
static char * D:\Utilisateurs\Lauranne\Desktop\affiche\so\10_xpm[] = {
"28 31 12 1",
" 	c None",
".	c #944801",
"+	c #673201",
"@	c #301801",
"#	c #1C1C1C",
"$	c #000000",
"%	c #FF9AED",
"&	c #FF40DD",
"*	c #E46E6E",
"=	c #A93333",
"-	c #0D7283",
";	c #01505E",
"        ..++++++++..        ",
"       ..++++++++++..       ",
"      ..++++++++++++..      ",
"      .+++@++++++++++.      ",
"      +++@+++++#++@+++      ",
"     .+@@@+@+++@@++@@+.     ",
"     +@@@+@@++++@@++@@+     ",
"    .@@@@+@$+@$+$@@++@@.    ",
". ..+@@$+@@$+@$+$$@+$+@+.. .",
" .++@@$$+@$$+@$++$@@$$@@++. ",
" ++$$@$+@@$+@$$$@+$@+$$$$++ ",
"   @@@$+@$+@@$$$@@+$@+$++   ",
"@ @@$$$+@$+@$$$$$@+$@+$$@+ +",
" @@$ @$$$+@$$$$$$$$$$$+ $@+ ",
"    @$$$$$$$$$$$$$$$$$$+    ",
"   $$$$$$$$$$$$$$$$$$ $$$   ",
"      $$$%%&&&&&&%%$$$      ",
"       $$%&%%%%%%&%$$       ",
"       $%&&%%%%%%&&%$       ",
"       $%&$&%%%%&$&%$       ",
"       $&&$&%%%%&$&&$       ",
"       $&$$&&&&&&$$&$       ",
"       $$$$$$$$$$$$$$       ",
"      $**=$-;;;;;$=**$      ",
"      $**$$-;;;;;$$**$      ",
"       $$ $-----;$ $$       ",
"          $;$$$$;$          ",
"          $;;$$;;$          ",
"          $;;$$;;$          ",
"          $$$$$$$$          ",
"          $$$$$$$$          "};
