/* XPM */
static char * D:\Utilisateurs\Lauranne\Desktop\affiche\so\11_xpm[] = {
"28 32 11 1",
" 	c None",
".	c #944801",
"+	c #673201",
"@	c #301801",
"#	c #000000",
"$	c #FF9AED",
"%	c #FF40DD",
"&	c #E46E6E",
"*	c #A93333",
"=	c #0D7283",
"-	c #01505E",
"        ..++++++++..        ",
"       ..++++++++++..       ",
"      ..++++++++++++..      ",
"      .+++@++++++++++.      ",
"      +++@+++++@++@+++      ",
"     .+@@@+@+++@@++@@+.     ",
"     +@@@+@@++++@@++@@+     ",
"    .@@@@+@#+@#+#@@++@@.    ",
". ..+@@#+@@#+@#+##@+#+@+.. .",
" .++@@##+@##+@#++#@@##@@++. ",
" ++##@#+@@#+@###@+#@+####++ ",
"   @@@#+@#+@@###@@+#@+#++   ",
"@ @@###+@#+@#####@+#@+##@+ +",
" @@# @###+@###########+ #@+ ",
"    @##################+    ",
"   ################## ###   ",
"      ###$$%%%%%%$$###      ",
"       ##$%$$$$$$%$##       ",
"       #$%%$$$$$$%%$#       ",
"       #$%#%$$$$%#%$#       ",
"       #%%#%$$$$%#%%#       ",
"       #%##%%%%%%##%#       ",
"       ##############       ",
"      #&&*#=-----#*&&#      ",
"      #&&##=-----##&&#      ",
"       ## #=====-# ##       ",
"          #-####-#          ",
"          #--##--#          ",
"          #--##--#          ",
"          #####--#          ",
"          ########          ",
"              ####          "};
