/* XPM */
static char * D:\Utilisateurs\Lauranne\Desktop\affiche\so\3__xpm[] = {
"28 31 22 1",
" 	c None",
".	c #944801",
"+	c #673201",
"@	c #301801",
"#	c #000000",
"$	c #C95353",
"%	c #E46E6E",
"&	c #1C1C1C",
"*	c #0D7283",
"=	c #5E0101",
"-	c #FF8B8B",
";	c #64C9DA",
">	c #FFFFFF",
",	c #A93333",
"'	c #7F0909",
")	c #940101",
"!	c #C90101",
"~	c #FF9AED",
"{	c #FF40DE",
"]	c #FFCA99",
"^	c #3A3A3A",
"/	c #01505E",
"        ..++@@@@++..        ",
"       ..++@@@@@@++..       ",
"      ..+++@@##@@+++..      ",
"      .+++@@@##@@@+++.      ",
"      +++@@@#$$#@@@+++      ",
"     .+@@@@#$%%$#@@@@+.     ",
"     +@@@##$%%%%$##@@@+     ",
"    .@@@#$$&&%%&&$$#@@@.    ",
". ..+@@#$&&**%%**&=$#@@+.. .",
" .++@@##-*###%%###*-##@@++. ",
" ++##@##%;#>>%%>>#;%##@##++ ",
"   @@@##%>--%,,%-->%##@@@   ",
"@ @@####$%%%%%%%%%%$####@@ @",
" @@# @###$%%'))'%%$###@ #@@ ",
"    @## ##$%%!!%%$## ##@    ",
"   ###  ###$$%%$$###  ###   ",
"        #~~##==##~~#        ",
"       ##~{~~~~~~{~##       ",
"       #~{{~~~~~~{{~#       ",
"       #~{#{~~~~{#{~#       ",
"       #{{#{~~~~{#{{#       ",
"       #{##{{{{{{##{#       ",
"       ######]]######       ",
"      #%%,#*####^#,%%#      ",
"      #%%##*/////##%%#      ",
"       ## #*****/# ##       ",
"          #*/##*/#          ",
"          #*/##*/#          ",
"          #*/##*/#          ",
"          ########          ",
"          ########          "};
