/* XPM */
static char * D:\Utilisateurs\Lauranne\Desktop\affiche\so\4_xpm[] = {
"28 32 22 1",
" 	c None",
".	c #944801",
"+	c #673201",
"@	c #301801",
"#	c #1C1C1C",
"$	c #000000",
"%	c #C95353",
"&	c #E46E6E",
"*	c #0D7283",
"=	c #FF8B8B",
"-	c #64C9DA",
";	c #FFFFFF",
">	c #A93333",
",	c #7F0909",
"'	c #8F1919",
")	c #5E0101",
"!	c #FF9AED",
"~	c #FF40DE",
"{	c #070707",
"]	c #FFCA99",
"^	c #010A0B",
"/	c #01505E",
"        ..++@@@#++..        ",
"       ..++@@@@@@++..       ",
"      ..+++@@$$@@+++..      ",
"      .+++@@@$$@@@+++.      ",
"      +++@@@$%%$@@@+++      ",
"     .+@@@@$%&&%$@@@@+.     ",
"     +@@@$$%&&&&%$$@@@+     ",
"    .@@@$%%@@&&@@%%$@@@.    ",
". ..+@@$%@@**&&**@@%$@@+.. .",
" .++@@$$=*$$$&&$$$*=$$@@++. ",
" ++$$@$$&-$;;&&;;$-&$$@$$++ ",
"   @@@$$&;==&>>&==;&$$@@@   ",
"@ @@$$$$%&&&&&&&&&&%$$$$@@ #",
" @@$ @$$$%&&,,,,&&%$$$@ $@@ ",
"    @$$$$$%&&''&&%$$$$$@    ",
"   $$$  $$$%%&&%%$$$  $$$   ",
"        $$$$$))$$$$         ",
"       $$$$!!!!!!$$$        ",
"       $!~~!!!!!!!!$        ",
"       $!~$~!!!!~~!$$       ",
"       $~~$~!!!!~~~!$       ",
"       $~$$~~~~~~$~!$       ",
"       $$${{{]]{{{~~$       ",
"      $&&>{**{^**{$~$       ",
"      $&&${//////{$$$       ",
"       $$ $//**//$$&&$      ",
"          $/*$$*/$$&&$      ",
"          $/*$$*/$ $$       ",
"          $/*$$*/$          ",
"          $$$$$//$          ",
"          $$$$$$$$          ",
"              $$$$          "};
