/* XPM */
static char * D:\Utilisateurs\Lauranne\Desktop\affiche\so\7_xpm[] = {
"23 32 22 1",
" 	c None",
".	c #944801",
"+	c #673201",
"@	c #301801",
"#	c #000000",
"$	c #C95353",
"%	c #FF8B8B",
"&	c #E46E6E",
"*	c #48ADBE",
"=	c #FFFFFF",
"-	c #7F0909",
";	c #1C1C1C",
">	c #FF40DD",
",	c #FF9AED",
"'	c #F326CF",
")	c #D205AE",
"!	c #DB0EB7",
"~	c #D306AF",
"{	c #EA1DC6",
"]	c #F72AD3",
"^	c #01505E",
"/	c #0D7283",
"          .........    ",
"         .........+.   ",
"        .......++++@   ",
"       .......++++@#+  ",
"       .....++++@@#$#+ ",
"      .....++++@@#$%#+ ",
"      ....++++@@#$%%#++",
"  #+.....+++@@@#$&&%#@+",
"   #@+.+++@@####***&#@+",
"#   #+@++@@@#$&*###&#@+",
"#@@+.########$$##==&#@ ",
" #@@++@######&$%&&&&## ",
"  ##@@@@@@##$%%=%%%$###",
"    ########&%%%---#;  ",
"  #@ @######$&%%%-###  ",
"   #@@@@@#####$&&## ## ",
"    ###@##########     ",
"       ## #>>,,#>#     ",
"          #'>,,#>#     ",
"          #)!>,###     ",
"          #~##>,#####  ",
"          #~{##>>#&&#  ",
"          ##]>####&&#  ",
"           ##########  ",
"           ##^^/##     ",
"           ###^^/#     ",
"          #^^##^^/#    ",
"         ##^/###^^/### ",
"         #//## ##^#####",
"         ####    ##### ",
"         ####     ###  ",
"          ####         "};
