/* XPM */
static char * D:\Utilisateurs\Lauranne\Desktop\affiche\so\8_xpm[] = {
"23 32 23 1",
" 	c None",
".	c #944801",
"+	c #673201",
"@	c #301801",
"#	c #1C1C1C",
"$	c #000000",
"%	c #C95353",
"&	c #FF8B8B",
"*	c #E46E6E",
"=	c #48ADBE",
"-	c #FFFFFF",
";	c #E67070",
">	c #7F0909",
",	c #EF7979",
"'	c #D205AE",
")	c #F326CF",
"!	c #FF40DD",
"~	c #010101",
"{	c #DB0EB7",
"]	c #FF9AED",
"^	c #D306AF",
"/	c #030102",
"(	c #01505E",
"         .........     ",
"        .........+.    ",
"       .......++++@    ",
"      .......++++#$+   ",
"      .....++++@#$%$+  ",
"     .....++++@@$%&$+  ",
"     ....++++@@$%&&$++ ",
" $+.....+++@@@$%**&$@+ ",
"  $@+.+++@@$$$$===*$@+ ",
"   $+@++@@@$%*=$$$*$@+ ",
"  +.$$$$$$$$%%$$--*$@  ",
"$@@++@$$$$$$*%&****$$  ",
" $$@@@@@@$$%&&-&&&%$$  ",
"   $$$$$$$$%&;&>>>$@$$ ",
" $  $$$$$$$%%;,&>$$$ $$",
"  $#@$$@$$$$$%%%$$$$   ",
"  $@@@@$$$')!$$$$  $$  ",
"   $$$$~$${!!$]]$      ",
"        $$!!!$!]$      ",
"        $$$!!$!]$      ",
"        $^$!!$!]$      ",
"        $^/!!$^^$      ",
"        $^$$$$]$$      ",
"        $$$***$$$      ",
"         $$**$$$$      ",
"          $$$$($       ",
"          $(($($       ",
"          $(($($       ",
"          $(($($       ",
"          $$$$$$$      ",
"          $$$$$$$$     ",
"          $$$$$$$$     "};
