/* XPM */
static char * D:\Utilisateurs\Lauranne\Desktop\affiche\so\9_xpm[] = {
"24 32 26 1",
" 	c None",
".	c #944801",
"+	c #673201",
"@	c #301801",
"#	c #000000",
"$	c #C95353",
"%	c #FF8B8B",
"&	c #E46E6E",
"*	c #48ADBE",
"=	c #FFFFFF",
"-	c #E67070",
";	c #7F0909",
">	c #EF7979",
",	c #D205AE",
"'	c #F326CF",
")	c #FF40DD",
"!	c #020101",
"~	c #DB0EB7",
"{	c #FF9AED",
"]	c #D306AF",
"^	c #030102",
"/	c #FFB36C",
"(	c #E36D6D",
"_	c #01505E",
":	c #0D7283",
"<	c #010101",
"          .........     ",
"         .........+.    ",
"        .......++++@    ",
"       .......++++@#+   ",
"       .....++++@@#$#+  ",
"      .....++++@@#$%#+  ",
"      ....++++@@#$%%#++ ",
"  #+.....+++@@@#$&&%#@+ ",
"   #@+.+++@@####***&#@+ ",
"    #+@++@@@#$&*###&#@+ ",
"  @+.########$$##==&#@  ",
"##@@++@######&$%&&&&##  ",
"    @@@@@@##$%%=%%%$##  ",
"   #########&%-%;;;#@## ",
"  #@   #####$-->%;### ##",
"      ##@#####--&####   ",
"    @@@@###,')####  ##  ",
"      ##!##~))#{{#      ",
"         ##){{#){#      ",
"        ##){{#'){#      ",
"        #){##]'){#      ",
"        #)#^]]]]]#      ",
"        #######/##      ",
"       #&(###_####      ",
"        #&&#___:##      ",
"         ###__#:#       ",
"         ##__:#:#       ",
"         #__:##:#       ",
"        ###:#####       ",
"       #####  #<<#      ",
"        ##### #####     ",
"         #### #####     "};
