/* XPM */
static char * D:\Utilisateurs\Lauranne\Desktop\affiche\so\13_xpm[] = {
"27 25 9 1",
" 	c None",
".	c #000000",
"+	c #4A013E",
"@	c #73015F",
"#	c #80016A",
"$	c #A40188",
"%	c #DF01B9",
"&	c #FF0CD5",
"*	c #1D1D1D",
"   ......        .......   ",
"  ..+++++..    ..++++++..  ",
" ..++@@@#++.  .+++#@@@++.. ",
" .++@$$@@@++..++@@@@$$@++. ",
".++@$$$$$@@+..+@@@$$$$$@++.",
".++@$%%%$$@@..@@$$$%%%$@++.",
".++@$%%%$$@@..@@$$$%%%$@++.",
".++@$%&&%%$@##@$%%%&&%$@++.",
".++@$%%&&%$$@@$$%%&&%%$@++.",
".*++$%%&&%%$@@$%%%&&%%$+++.",
" .++@$%%&&%%@@%%&&&%%$@++. ",
"  .++$$%%&&%%%%&&&%%$$++.  ",
"  ..+@$$%%&%%%%&%%%$$@+..  ",
"   .++@$$%&&%%&&%%$$@++.   ",
"    .++@$$%&&&&%$$$@++.    ",
"     .++@$%%&&%%$$@++.     ",
"     ..++@$%%%%$@@++..     ",
"      .++@@$%%$@@@++.      ",
"       .*+@@%%@@+++.       ",
"        .++@@@@++*.        ",
"         .++@@++..         ",
"          .++++.           ",
"           .++.            ",
"            ..             ",
"            ..             "};
