/* XPM */
static char * D:\Utilisateurs\Lauranne\Desktop\affiche\so\14_xpm[] = {
"28 10 10 1",
" 	c None",
".	c #7B0165",
"+	c #FF55E1",
"@	c #01424E",
"#	c #096E7F",
"$	c #303030",
"%	c #40A5B6",
"&	c #FFFFFF",
"*	c #2B90A1",
"=	c #013039",
"         ..........         ",
"     ....++@####$++....     ",
"   ...++++$##%%##$++++...   ",
" ...++&&&&@#%%%%#@&&&&++... ",
".++&&&&&&&@#*==*#@&&&&&&&++.",
".++&&&&&&&@#*==*#@&&&&&&&++.",
" ...++&&&&@#%%%%#@&&&&++... ",
"   ...++++@##%%##@++++...   ",
"     ....++.####@++....     ",
"         ..........         "};
