/* XPM */
static char * D:\Utilisateurs\Lauranne\Desktop\affiche\so\15_xpm[] = {
"28 14 10 1",
" 	c None",
".	c #7B0166",
"+	c #7B0165",
"@	c #01424E",
"#	c #096E7F",
"$	c #FF55E1",
"%	c #40A5B6",
"&	c #FFFFFF",
"*	c #013039",
"=	c #FF56E1",
"           ......           ",
"       +++.@@##@@++++       ",
"     +++$$@@####@@$$+++     ",
"    ++$$$@@#%%%%#@@$$$++    ",
"  +++$$&&@##%%%%##@&&$$+..  ",
"++$$$$&&&@##%**%##@&&&$$$=..",
"+$&&&&&&&@##****##@&&&&&&&=.",
"+$&&&&&&&@##****##@&&&&&&&$.",
"++$$$$&&&@##%**%##@&&&$$$$++",
"  +++$$&&@##%%%%##@&&$$+++  ",
"    ..$$$@@#%%%%#@@$$$++    ",
"     ..+$$@@####@@$$+++     ",
"       +++@@@##@@@+++       ",
"           ......           "};
