/* XPM */
static char * D:\Utilisateurs\Lauranne\Desktop\affiche\so\5_xpm[] = {
"34 16 9 1",
" 	c None",
".	c #7B0166",
"+	c #01424E",
"@	c #096E7F",
"#	c #FF56E1",
"$	c #40A5B6",
"%	c #FFFFFF",
"&	c #303030",
"*	c #013039",
"             ........             ",
"         .....++@@++......        ",
"      ....##+++@@@@++.##....      ",
"     ..####++@@$$$$@@++####..     ",
"   ...###%%+@@@$$$$@@@&%%%##....  ",
"   ...###%%+@@@$$$$@@@+%%%##....  ",
"...####%%%%+@@@$**$@@@+%%%%#####..",
".##%%%%%%%%+@@@****@@@+%%%%%%%%%#.",
".##%%%%%%%%+@@@****@@@+%%%%%%%%%#.",
"...####%%%%+@@@$**$@@@+%%%%#####..",
"   ...###%%+@@@$$$$@@@+%%%##....  ",
"   ...###%%+@@@$$$$@@@+%%%##....  ",
"     ..####++@@$$$$@@++####..     ",
"      ....##+++@@@@+++##....      ",
"         .....++@@++......        ",
"             ........             "};
