/* XPM */
static char *_80bb61ad34d4523ed6d2438510f8888ZkIcS41o2WuHUXVZ[] = {
/* columns rows colors chars-per-pixel */
"34 34 7 1 ",
"  c None",
". c black",
"X c gray17",
"o c #013C44",
"O c #014A54",
"+ c #075D69",
"@ c #2F8591",
/* pixels */
"                                  ",
"                ..                ",
"                ..                ",
"                ..                ",
"               ....               ",
"               .oo.               ",
"               .oo.               ",
"              ..oo..              ",
"              .oooo.              ",
"              .o@@o.              ",
"              .o@@o.              ",
"             ..o@@o..             ",
"  ............oo@@oo............  ",
"    .oooooooooo+@@+oooooooooo.    ",
"    ..ooo@@@@+++@@+++@@@@ooo..    ",
"      ..o@@@@@@+@@+@@@@@@o..      ",
"       ..oo+@@@@@@@@@@+oo..       ",
"        ...oo+++@@+++oo...        ",
"          ..o++@@@@++o..          ",
"           .o+@@++@@+o.           ",
"          ..o@@@++@@@o..          ",
"          .o@@@+oo+@@@o.          ",
"          .o@@oo..oo@@o.          ",
"         ..o@+o....o+@o..         ",
"         .oooo..  ..oooo.         ",
"        .Xoo...    ...ooo.        ",
"        .oo..        ..oo.        ",
"        .O..          ..O.        ",
"        ..              ..        ",
"       ..                ..       ",
"                                  ",
"                                  ",
"                                  ",
"                                  "
};
